<?xml version="1.0" standalone="no"?>
<!DOCTYPE svg PUBLIC "-//W3C//DTD SVG 1.1//EN" "http://www.w3.org/Graphics/SVG/1.1/DTD/svg11.dtd" >
<svg xmlns="http://www.w3.org/2000/svg">
<metadata></metadata>
<defs>
<font id="portermedium" horiz-adv-x="1445" >
<font-face units-per-em="2048" ascent="1536" descent="-512" />
<missing-glyph horiz-adv-x="491" />
<glyph horiz-adv-x="0" />
<glyph horiz-adv-x="682" />
<glyph horiz-adv-x="0" />
<glyph horiz-adv-x="0" />
<glyph unicode="&#xd;" horiz-adv-x="1957" d="M205 0v1434h231l549 -1110l537 1110h231v-1434h-231v932l-432 -932h-205l-449 932v-932h-231z" />
<glyph unicode=" "  horiz-adv-x="491" />
<glyph unicode="&#x09;" horiz-adv-x="491" />
<glyph unicode="&#xa0;" horiz-adv-x="491" />
<glyph unicode="!" horiz-adv-x="915" d="M307 135q0 63 44 107.5t106 44.5q64 0 107.5 -44.5t43.5 -107.5q0 -62 -43.5 -105.5t-107.5 -43.5q-62 0 -106 44t-44 105zM338 956v478h235v-478l-41 -553h-149z" />
<glyph unicode="&#x22;" horiz-adv-x="686" d="M123 1014l35 420h172l-84 -420h-123zM420 1014l35 420h170l-82 -420h-123z" />
<glyph unicode="#" horiz-adv-x="1705" d="M430 379v223h246l33 229h-209v224h239l54 379h225l-53 -379h217l53 379h225l-53 -379h209v-224h-242l-31 -229h205v-223h-237l-54 -379h-225l53 379h-215l-53 -379h-225l53 379h-215zM901 602h217l31 229h-215z" />
<glyph unicode="$" horiz-adv-x="1148" d="M82 199l172 157q32 -41 127 -90t180 -49q44 0 85 10.5t77 32t58 60t22 88.5q0 27 -10 49t-38 49t-86.5 57.5t-148.5 63.5q-95 35 -162 70.5t-123.5 85t-85 114.5t-28.5 147q0 151 95.5 259.5t256.5 136.5v200h172v-198q95 -13 189 -52t147 -83l-145 -181q-5 4 -13.5 10 t-36.5 21.5t-56.5 27.5t-70.5 22t-81 10q-104 0 -164 -44.5t-60 -125.5q0 -37 19 -67.5t57.5 -55t76 -41t95.5 -37.5q241 -89 337.5 -190t96.5 -250q0 -157 -109 -272.5t-282 -141.5v-199h-172v199q-135 18 -258 96q-76 46 -133 111z" />
<glyph unicode="%" horiz-adv-x="2334" d="M307 1069q0 157 110 268t267 111q154 0 265.5 -111.5t111.5 -267.5q0 -154 -111 -264.5t-266 -110.5q-158 0 -267.5 109.5t-109.5 265.5zM545 1069q0 -58 40 -97.5t99 -39.5t99 39.5t40 97.5t-41 99.5t-98 41.5q-59 0 -99 -40.5t-40 -100.5zM580 0l901 1434h274 l-903 -1434h-272zM1274 362q0 154 111 266.5t266 112.5q154 0 265.5 -112.5t111.5 -266.5q0 -155 -111 -265.5t-266 -110.5t-266 110.5t-111 265.5zM1511 362q0 -58 40.5 -98.5t99.5 -40.5t99 40.5t40 98.5t-40.5 100t-98.5 42t-99 -41.5t-41 -100.5z" />
<glyph unicode="&#x26;" horiz-adv-x="1785" d="M307 389q0 104 56 204.5t149 168.5l100 74q-62 71 -96.5 145t-34.5 137q0 147 94.5 238.5t247.5 91.5q143 0 243.5 -90.5t100.5 -220.5q0 -95 -53 -169t-182 -175l244 -293l200 207l142 -148l-209 -227l272 -332h-285l-143 176q-208 -190 -412 -190q-187 0 -310.5 113.5 t-123.5 289.5zM524 393q0 -84 60.5 -141t148.5 -57q129 0 285 147l-270 328q-138 -95 -181 -150t-43 -127zM696 1147q0 -34 20 -72.5t89 -120.5q83 64 114 102.5t31 84.5q0 53 -35 82.5t-96 29.5q-50 0 -86.5 -26t-36.5 -80z" />
<glyph unicode="'" horiz-adv-x="391" d="M123 1014l35 420h172l-84 -420h-123z" />
<glyph unicode="(" horiz-adv-x="1081" d="M307 717q0 258 111 493.5t309 399.5l150 -178q-160 -130 -249 -319t-89 -396q0 -208 88.5 -396.5t249.5 -318.5l-150 -178q-196 162 -308 396t-112 497z" />
<glyph unicode=")" horiz-adv-x="1081" d="M205 2q161 130 249.5 318.5t88.5 396.5q0 207 -89 396t-249 319l149 178q198 -164 309 -399.5t111 -493.5q0 -263 -112 -497t-308 -396z" />
<glyph unicode="*" horiz-adv-x="1705" d="M655 1106l54 160l231 -76v244h168v-244l231 76l52 -160l-232 -76l146 -199l-138 -96l-143 197l-143 -197l-138 96l144 199z" />
<glyph unicode="+" horiz-adv-x="1527" d="M307 600v234h340v340h234v-340h340v-234h-340v-340h-234v340h-340z" />
<glyph unicode="," horiz-adv-x="786" d="M205 -174l151 434h226l-224 -434h-153z" />
<glyph unicode="-" horiz-adv-x="1527" d="M307 600v234h914v-234h-914z" />
<glyph unicode="." horiz-adv-x="710" d="M205 135q0 63 43.5 107.5t105.5 44.5q64 0 108 -44.5t44 -107.5q0 -62 -44 -105.5t-108 -43.5q-62 0 -105.5 44t-43.5 105z" />
<glyph unicode="/" d="M246 0l696 1434h258l-696 -1434h-258z" />
<glyph unicode="0" horiz-adv-x="1269" d="M143 717q0 219 53.5 381.5t166 256t272.5 93.5q233 0 362 -196.5t129 -534.5q0 -218 -54 -380.5t-166 -256.5t-271 -94q-234 0 -363 196.5t-129 534.5zM375 717q0 -235 66.5 -367.5t193.5 -132.5q129 0 194.5 135t65.5 365q0 236 -67 368t-193 132q-128 0 -194 -134 t-66 -366z" />
<glyph unicode="1" horiz-adv-x="876" d="M61 1053l512 381h78v-1434h-229v1034l-223 -166z" />
<glyph unicode="2" horiz-adv-x="1159" d="M123 0v96l479 602q55 70 82 111t45.5 94.5t18.5 114.5q0 87 -46.5 143t-144.5 56q-88 0 -136.5 -37.5t-70.5 -118.5l-223 57q38 157 150 243.5t280 86.5q189 0 305.5 -122t116.5 -308q0 -121 -47.5 -228.5t-153.5 -240.5l-252 -318h480v-231h-883z" />
<glyph unicode="3" horiz-adv-x="1241" d="M123 377l227 59q5 -91 76.5 -155t169.5 -64q103 0 175.5 68.5t72.5 163.5v20q0 95 -72.5 163t-175.5 68h-49l-109 117l185 385h-369v232h737l-250 -523q98 -31 177 -100t120 -160q39 -92 39 -182v-20q0 -131 -68 -238.5t-178 -166t-235 -58.5q-173 0 -310 112t-163 279z " />
<glyph unicode="4" horiz-adv-x="1183" d="M72 274v179l608 981h205v-926h186v-234h-186v-274h-232v274h-581zM377 508h276v442z" />
<glyph unicode="5" horiz-adv-x="1214" d="M154 377l225 59q10 -98 77.5 -158.5t159.5 -60.5q110 0 177 73t67 167q0 105 -69.5 175t-172.5 70q-84 0 -131.5 -16t-97.5 -53h-162v801h752v-232h-520v-295q74 29 159 29q220 0 347 -136t127 -343q0 -105 -40.5 -195t-107 -149.5t-152 -93t-176.5 -33.5 q-171 0 -302 110t-160 281z" />
<glyph unicode="6" horiz-adv-x="1175" d="M143 451v20q6 114 50 207l368 756h258l-246 -500q14 2 45 2q199 0 334 -135q69 -66 105.5 -151.5t36.5 -178.5v-20q0 -129 -67 -237t-176 -168t-233 -60q-130 0 -240.5 65.5t-172.5 172.5t-62 227zM375 451q0 -97 71 -165.5t172 -68.5t172.5 68.5t71.5 165.5v20 q0 97 -71.5 165.5t-172.5 68.5t-172 -68.5t-71 -165.5v-20z" />
<glyph unicode="7" horiz-adv-x="999" d="M102 1202v232h836v-129l-547 -1305h-252l504 1202h-541z" />
<glyph unicode="8" horiz-adv-x="1282" d="M164 453v20q0 108 51 207.5t139 165.5q-80 100 -80 227v14q0 145 107 253t260 108t260 -108t107 -253v-14q0 -127 -80 -227q101 -76 151 -191q39 -89 39 -182v-20q0 -133 -69.5 -242t-178 -167t-229.5 -58q-194 0 -335.5 138t-141.5 329zM397 453q0 -97 71.5 -166.5 t172.5 -69.5t172.5 69.5t71.5 166.5v20q0 97 -71.5 166.5t-172.5 69.5t-172.5 -69.5t-71.5 -166.5v-20zM506 1073q0 -54 39.5 -91.5t95.5 -37.5t95.5 37.5t39.5 91.5v14q0 53 -40 91.5t-95 38.5t-95 -38.5t-40 -91.5v-14z" />
<glyph unicode="9" horiz-adv-x="1175" d="M82 963v20q0 129 66.5 237t175.5 168t233 60q130 0 240.5 -65.5t172.5 -172.5t62 -227v-20q-6 -116 -49 -207l-369 -756h-258l246 500q-14 -2 -45 -2q-199 0 -334 135q-68 65 -104.5 151t-36.5 179zM313 963q0 -97 71.5 -165.5t172.5 -68.5t172.5 68.5t71.5 165.5v20 q0 97 -71.5 165.5t-172.5 68.5t-172.5 -68.5t-71.5 -165.5v-20z" />
<glyph unicode=":" horiz-adv-x="714" d="M205 756q0 63 43.5 107t105.5 44q64 0 108 -44t44 -107q0 -62 -44 -106t-108 -44q-61 0 -105 44t-44 106zM209 135q0 63 43.5 107.5t105.5 44.5q64 0 108 -44.5t44 -107.5q0 -62 -44 -105.5t-108 -43.5q-62 0 -105.5 44t-43.5 105z" />
<glyph unicode=";" horiz-adv-x="831" d="M205 -174h153l224 434h-226zM326 756q0 63 43.5 107t105.5 44q64 0 108 -44t44 -107q0 -62 -44 -106t-108 -44q-61 0 -105 44t-44 106z" />
<glyph unicode="&#x3c;" horiz-adv-x="1726" d="M307 594v244l1010 217v-234l-608 -104l608 -107v-233z" />
<glyph unicode="=" horiz-adv-x="1527" d="M307 399v234h914v-234h-914zM307 868v234h914v-234h-914z" />
<glyph unicode="&#x3e;" horiz-adv-x="1726" d="M410 377v233l608 107l-608 104v234l1009 -217v-244z" />
<glyph unicode="?" horiz-adv-x="1312" d="M205 1063q0 170 108.5 277.5t290.5 107.5q105 0 200 -45.5t158.5 -135t63.5 -202.5q0 -108 -54 -188t-190 -170q-73 -49 -92.5 -89t-19.5 -137v-78h-213v43q0 129 13.5 197t50 116t116.5 101q97 63 132.5 105t35.5 96q0 73 -58.5 129.5t-140.5 56.5q-76 0 -133 -50 t-57 -110v-24h-211zM412 135q0 63 43.5 107.5t105.5 44.5q64 0 108 -44.5t44 -107.5q0 -62 -44 -105.5t-108 -43.5q-61 0 -105 44t-44 105z" />
<glyph unicode="@" horiz-adv-x="1835" d="M205 717q0 130 40 246.5t109.5 204t161 151.5t197 96.5t213.5 32.5q194 0 356.5 -84t255.5 -236q92 -159 92 -348q0 -118 -35.5 -217t-111 -163t-178.5 -64q-53 0 -95 21t-65 55q-41 -45 -103 -67.5t-127 -22.5q-162 0 -276.5 116.5t-114.5 278.5t114.5 278.5 t276.5 116.5q126 0 207 -70v31q0 9 5.5 15t13.5 6h131q8 0 13 -6t5 -15v-514q0 -29 8.5 -41t18.5 -12q66 0 101.5 76.5t35.5 201.5q0 116 -43.5 211t-117 156t-168 94t-199.5 33q-118 0 -221 -46.5t-174 -124t-111.5 -179.5t-40.5 -211q0 -125 46.5 -232t123.5 -178 t175 -111t202 -40q180 0 346 116q4 4 10 4q11 0 18 -10l62 -106q4 -8 4 -15q0 -11 -8 -16q-110 -76 -211 -109.5t-221 -33.5q-162 0 -300 63t-228.5 166t-141.5 233.5t-51 268.5zM705 709q0 -88 61 -149.5t149 -61.5q83 0 146 47.5t63 118.5v108q0 69 -63.5 116.5 t-145.5 47.5q-88 0 -149 -60.5t-61 -148.5v-18z" />
<glyph unicode="A" d="M41 0l637 1448h82l645 -1448h-254l-121 274h-616l-121 -274h-252zM516 506h410l-205 463z" />
<glyph unicode="B" horiz-adv-x="1357" d="M205 0v1434h569q175 0 300.5 -114t125.5 -265q0 -41 -9.5 -81.5t-31 -83t-62.5 -81t-98 -66.5q84 -25 143.5 -80t86 -117.5t26.5 -125.5q0 -65 -14 -123t-48.5 -113.5t-87 -95t-136 -64t-189.5 -24.5h-575zM436 231h305q130 0 196.5 54t66.5 135q0 196 -263 196h-305 v-385zM436 850h303q94 0 151.5 46t57.5 122q0 77 -58.5 130.5t-150.5 53.5h-303v-352z" />
<glyph unicode="C" horiz-adv-x="1449" d="M102 715q0 156 60.5 294.5t161 233.5t233 150t274.5 55q143 0 278.5 -55t236.5 -156l-164 -164q-69 69 -160 106.5t-191 37.5q-135 0 -250 -68t-181 -183.5t-66 -250.5q0 -134 66 -248.5t181 -182t250 -67.5q209 0 373 164l164 -164q-231 -231 -537 -231 q-161 0 -299.5 62.5t-231.5 164.5t-145.5 233t-52.5 269z" />
<glyph unicode="D" horiz-adv-x="1509" d="M205 0v1434h487q209 0 367 -91t242.5 -254t84.5 -374q0 -150 -49.5 -281t-138 -227t-219.5 -151.5t-287 -55.5h-487zM436 231h256q130 0 236 64.5t165.5 175.5t59.5 244t-59 244t-165.5 176t-236.5 65h-256v-969z" />
<glyph unicode="E" horiz-adv-x="1224" d="M205 0v1434h897v-232h-666v-368h486v-234h-486v-369h666v-231h-897z" />
<glyph unicode="F" horiz-adv-x="1183" d="M205 0v1434h897v-232h-666v-368h486v-234h-486v-600h-231z" />
<glyph unicode="G" horiz-adv-x="1507" d="M102 715q0 130 40 246.5t110.5 204t162.5 152t199 97.5t217 33q145 0 277 -54t235 -155l-161 -166q-71 69 -162 106.5t-189 37.5q-207 0 -352 -146.5t-145 -355.5q0 -136 66.5 -250.5t181 -181t249.5 -66.5q151 0 281 84v250h-291v231h522v-589q-233 -207 -512 -207 q-161 0 -299.5 62t-231.5 164t-145.5 233t-52.5 270z" />
<glyph unicode="H" horiz-adv-x="1533" d="M205 0v1434h231v-600h662v600h231v-1434h-231v600h-662v-600h-231z" />
<glyph unicode="I" horiz-adv-x="641" d="M205 0v1434h231v-1434h-231z" />
<glyph unicode="J" horiz-adv-x="847" d="M-41 135l160 168l37 -35q54 -51 114 -51q67 0 114.5 48t47.5 116v1053h232v-1053q0 -159 -114.5 -277t-279.5 -118q-78 0 -151.5 31t-128.5 89z" />
<glyph unicode="K" horiz-adv-x="1392" d="M205 0v1434h231v-623l557 623h312l-594 -666l641 -768h-303l-496 594l-117 -131v-463h-231z" />
<glyph unicode="L" horiz-adv-x="1132" d="M205 0v1434h231v-1203h604v-231h-835z" />
<glyph unicode="M" horiz-adv-x="2015" d="M205 0v1448h119l684 -678l684 678h118v-1448h-231v1012l-571 -568l-572 568v-1012h-231z" />
<glyph unicode="N" horiz-adv-x="1581" d="M205 0v1448h82l858 -954v940h231v-1448h-86l-854 950v-936h-231z" />
<glyph unicode="O" horiz-adv-x="1667" d="M102 715q0 144 55.5 277.5t151.5 234t233.5 161t291.5 60.5q140 0 273 -55t234 -150t162.5 -233.5t61.5 -294.5q0 -141 -55 -273.5t-150 -233t-233 -161.5t-293 -61q-110 0 -217 33t-199.5 97t-163.5 151t-111.5 203t-40.5 245zM334 715q0 -206 147 -352t353 -146 q135 0 249.5 67t181 181.5t66.5 249.5t-67.5 251t-182 183.5t-247.5 67.5q-136 0 -251 -67.5t-182 -183t-67 -251.5z" />
<glyph unicode="P" horiz-adv-x="1290" d="M205 0v1434h573q174 0 302 -126.5t128 -303.5q0 -179 -127 -306t-303 -127h-342v-571h-231zM436 803h287q124 0 189 56.5t65 144.5q0 86 -65.5 142t-188.5 56h-287v-399z" />
<glyph unicode="Q" horiz-adv-x="1693" d="M102 715q0 144 55.5 277.5t151.5 234t233.5 161t291.5 60.5q140 0 273 -55t234 -150t162.5 -233.5t61.5 -294.5q0 -129 -45 -250.5t-129 -220.5l221 -244h-316l-82 92q-170 -106 -380 -106q-110 0 -217 33t-199.5 97t-163.5 151t-111.5 203t-40.5 245zM334 715 q0 -206 147 -352t353 -146q121 0 221 53l-303 338l174 156l309 -344q96 133 96 295q0 135 -67.5 251t-182 183.5t-247.5 67.5q-136 0 -251 -67.5t-182 -183t-67 -251.5z" />
<glyph unicode="R" horiz-adv-x="1437" d="M205 0v1434h573q174 0 302 -126.5t128 -303.5q0 -138 -78.5 -249.5t-201.5 -156.5l428 -598h-285l-407 571h-228v-571h-231zM436 803h287q124 0 189 56.5t65 144.5q0 86 -65.5 142t-188.5 56h-287v-399z" />
<glyph unicode="S" horiz-adv-x="1148" d="M82 199l172 157q32 -41 127 -90t180 -49q44 0 85 10.5t77 32t58 60t22 88.5q0 27 -10 49t-38 49t-86.5 57.5t-148.5 63.5q-95 35 -162 70.5t-123.5 85t-85 114.5t-28.5 147q0 174 124.5 289t321.5 115q108 0 228.5 -43t185.5 -98l-145 -181q-5 4 -13.5 10t-36.5 21.5 t-56.5 27.5t-70.5 22t-81 10q-104 0 -164 -44.5t-60 -125.5q0 -37 19 -67.5t57.5 -55t76 -41t95.5 -37.5q241 -89 337.5 -190t96.5 -250q0 -176 -135.5 -298t-339.5 -122q-187 0 -346 102q-76 46 -133 111z" />
<glyph unicode="T" horiz-adv-x="1243" d="M92 1202v232h1059v-232h-412v-1202h-233v1202h-414z" />
<glyph unicode="U" horiz-adv-x="1466" d="M184 537v897h232v-859q0 -160 93.5 -259t223.5 -99t224 99t94 259v859h231v-897q0 -242 -153.5 -396.5t-395.5 -154.5t-395.5 154.5t-153.5 396.5z" />
<glyph unicode="V" d="M41 1434h252l432 -969l428 969h252l-639 -1448h-80z" />
<glyph unicode="W" horiz-adv-x="2056" d="M41 1434h242l292 -930l414 944h76l414 -944l295 934h241l-456 -1452h-107l-424 970l-426 -970h-106z" />
<glyph unicode="X" horiz-adv-x="1492" d="M72 0l532 737l-502 697h287l359 -498l358 498h287l-502 -697l530 -737h-284l-389 539l-390 -539h-286z" />
<glyph unicode="Y" horiz-adv-x="1372" d="M41 1434h287l358 -498l358 498h287l-528 -734v-700h-234v700z" />
<glyph unicode="Z" horiz-adv-x="1261" d="M102 0v55l668 1147h-627v232h1002v-48l-672 -1155h686v-231h-1057z" />
<glyph unicode="[" horiz-adv-x="786" d="M287 -170v1778h377v-174h-203v-1430h203v-174h-377z" />
<glyph unicode="\" d="M246 1434h258l696 -1434h-258z" />
<glyph unicode="]" horiz-adv-x="786" d="M123 4h203v1430h-203v174h377v-1778h-377v174z" />
<glyph unicode="^" horiz-adv-x="1705" d="M629 1067l303 367h184l303 -367l-176 -145l-219 260l-219 -260z" />
<glyph unicode="_" horiz-adv-x="1705" d="M418 0v233h1063v-233h-1063z" />
<glyph unicode="`" horiz-adv-x="724" d="M205 1808h223l195 -284h-177z" />
<glyph unicode="a" d="M41 0l637 1448h82l645 -1448h-254l-121 274h-616l-121 -274h-252zM516 506h410l-205 463z" />
<glyph unicode="b" horiz-adv-x="1357" d="M205 0v1434h569q175 0 300.5 -114t125.5 -265q0 -41 -9.5 -81.5t-31 -83t-62.5 -81t-98 -66.5q84 -25 143.5 -80t86 -117.5t26.5 -125.5q0 -65 -14 -123t-48.5 -113.5t-87 -95t-136 -64t-189.5 -24.5h-575zM436 231h305q130 0 196.5 54t66.5 135q0 196 -263 196h-305 v-385zM436 850h303q94 0 151.5 46t57.5 122q0 77 -58.5 130.5t-150.5 53.5h-303v-352z" />
<glyph unicode="c" horiz-adv-x="1449" d="M102 715q0 156 60.5 294.5t161 233.5t233 150t274.5 55q143 0 278.5 -55t236.5 -156l-164 -164q-69 69 -160 106.5t-191 37.5q-135 0 -250 -68t-181 -183.5t-66 -250.5q0 -134 66 -248.5t181 -182t250 -67.5q209 0 373 164l164 -164q-231 -231 -537 -231 q-161 0 -299.5 62.5t-231.5 164.5t-145.5 233t-52.5 269z" />
<glyph unicode="d" horiz-adv-x="1509" d="M205 0v1434h487q209 0 367 -91t242.5 -254t84.5 -374q0 -150 -49.5 -281t-138 -227t-219.5 -151.5t-287 -55.5h-487zM436 231h256q130 0 236 64.5t165.5 175.5t59.5 244t-59 244t-165.5 176t-236.5 65h-256v-969z" />
<glyph unicode="e" horiz-adv-x="1224" d="M205 0v1434h897v-232h-666v-368h486v-234h-486v-369h666v-231h-897z" />
<glyph unicode="f" horiz-adv-x="1183" d="M205 0v1434h897v-232h-666v-368h486v-234h-486v-600h-231z" />
<glyph unicode="g" horiz-adv-x="1507" d="M102 715q0 130 40 246.5t110.5 204t162.5 152t199 97.5t217 33q145 0 277 -54t235 -155l-161 -166q-71 69 -162 106.5t-189 37.5q-207 0 -352 -146.5t-145 -355.5q0 -136 66.5 -250.5t181 -181t249.5 -66.5q151 0 281 84v250h-291v231h522v-589q-233 -207 -512 -207 q-161 0 -299.5 62t-231.5 164t-145.5 233t-52.5 270z" />
<glyph unicode="h" horiz-adv-x="1533" d="M205 0v1434h231v-600h662v600h231v-1434h-231v600h-662v-600h-231z" />
<glyph unicode="i" horiz-adv-x="641" d="M205 0v1434h231v-1434h-231z" />
<glyph unicode="j" horiz-adv-x="847" d="M-41 135l160 168l37 -35q54 -51 114 -51q67 0 114.5 48t47.5 116v1053h232v-1053q0 -159 -114.5 -277t-279.5 -118q-78 0 -151.5 31t-128.5 89z" />
<glyph unicode="k" horiz-adv-x="1392" d="M205 0v1434h231v-623l557 623h312l-594 -666l641 -768h-303l-496 594l-117 -131v-463h-231z" />
<glyph unicode="l" horiz-adv-x="1132" d="M205 0v1434h231v-1203h604v-231h-835z" />
<glyph unicode="m" horiz-adv-x="2015" d="M205 0v1448h119l684 -678l684 678h118v-1448h-231v1012l-571 -568l-572 568v-1012h-231z" />
<glyph unicode="n" horiz-adv-x="1581" d="M205 0v1448h82l858 -954v940h231v-1448h-86l-854 950v-936h-231z" />
<glyph unicode="o" horiz-adv-x="1667" d="M102 715q0 144 55.5 277.5t151.5 234t233.5 161t291.5 60.5q140 0 273 -55t234 -150t162.5 -233.5t61.5 -294.5q0 -141 -55 -273.5t-150 -233t-233 -161.5t-293 -61q-110 0 -217 33t-199.5 97t-163.5 151t-111.5 203t-40.5 245zM334 715q0 -206 147 -352t353 -146 q135 0 249.5 67t181 181.5t66.5 249.5t-67.5 251t-182 183.5t-247.5 67.5q-136 0 -251 -67.5t-182 -183t-67 -251.5z" />
<glyph unicode="p" horiz-adv-x="1290" d="M205 0v1434h573q174 0 302 -126.5t128 -303.5q0 -179 -127 -306t-303 -127h-342v-571h-231zM436 803h287q124 0 189 56.5t65 144.5q0 86 -65.5 142t-188.5 56h-287v-399z" />
<glyph unicode="q" horiz-adv-x="1693" d="M102 715q0 144 55.5 277.5t151.5 234t233.5 161t291.5 60.5q140 0 273 -55t234 -150t162.5 -233.5t61.5 -294.5q0 -129 -45 -250.5t-129 -220.5l221 -244h-316l-82 92q-170 -106 -380 -106q-110 0 -217 33t-199.5 97t-163.5 151t-111.5 203t-40.5 245zM334 715 q0 -206 147 -352t353 -146q121 0 221 53l-303 338l174 156l309 -344q96 133 96 295q0 135 -67.5 251t-182 183.5t-247.5 67.5q-136 0 -251 -67.5t-182 -183t-67 -251.5z" />
<glyph unicode="r" horiz-adv-x="1437" d="M205 0v1434h573q174 0 302 -126.5t128 -303.5q0 -138 -78.5 -249.5t-201.5 -156.5l428 -598h-285l-407 571h-228v-571h-231zM436 803h287q124 0 189 56.5t65 144.5q0 86 -65.5 142t-188.5 56h-287v-399z" />
<glyph unicode="s" horiz-adv-x="1148" d="M82 199l172 157q32 -41 127 -90t180 -49q44 0 85 10.5t77 32t58 60t22 88.5q0 27 -10 49t-38 49t-86.5 57.5t-148.5 63.5q-95 35 -162 70.5t-123.5 85t-85 114.5t-28.5 147q0 174 124.5 289t321.5 115q108 0 228.5 -43t185.5 -98l-145 -181q-5 4 -13.5 10t-36.5 21.5 t-56.5 27.5t-70.5 22t-81 10q-104 0 -164 -44.5t-60 -125.5q0 -37 19 -67.5t57.5 -55t76 -41t95.5 -37.5q241 -89 337.5 -190t96.5 -250q0 -176 -135.5 -298t-339.5 -122q-187 0 -346 102q-76 46 -133 111z" />
<glyph unicode="t" horiz-adv-x="1243" d="M92 1202v232h1059v-232h-412v-1202h-233v1202h-414z" />
<glyph unicode="u" horiz-adv-x="1466" d="M184 537v897h232v-859q0 -160 93.5 -259t223.5 -99t224 99t94 259v859h231v-897q0 -242 -153.5 -396.5t-395.5 -154.5t-395.5 154.5t-153.5 396.5z" />
<glyph unicode="v" d="M41 1434h252l432 -969l428 969h252l-639 -1448h-80z" />
<glyph unicode="w" horiz-adv-x="2056" d="M41 1434h242l292 -930l414 944h76l414 -944l295 934h241l-456 -1452h-107l-424 970l-426 -970h-106z" />
<glyph unicode="x" horiz-adv-x="1492" d="M72 0l532 737l-502 697h287l359 -498l358 498h287l-502 -697l530 -737h-284l-389 539l-390 -539h-286z" />
<glyph unicode="y" horiz-adv-x="1372" d="M41 1434h287l358 -498l358 498h287l-528 -734v-700h-234v700z" />
<glyph unicode="z" horiz-adv-x="1261" d="M102 0v55l668 1147h-627v232h1002v-48l-672 -1155h686v-231h-1057z" />
<glyph unicode="{" horiz-adv-x="962" d="M225 717l178 186v567q0 36 12 62.5t28.5 40.5t38.5 22.5t38.5 10.5t32.5 2h225v-174h-203v-600l-110 -117l110 -117v-600h203v-174h-219q-24 0 -46 4.5t-49.5 17t-44 42t-16.5 73.5v567z" />
<glyph unicode="|" horiz-adv-x="870" d="M348 -170v1778h174v-1778h-174z" />
<glyph unicode="}" horiz-adv-x="962" d="M184 0h203v600l111 117l-111 117v600h-203v174h226q21 0 42 -4.5t47.5 -17t43 -42.5t16.5 -74v-567l178 -186l-178 -187v-567q0 -44 -16.5 -73.5t-44 -42t-49.5 -17t-46 -4.5h-219v174z" />
<glyph unicode="~" horiz-adv-x="866" d="M102 606q14 246 166 246q41 0 92.5 -26t105 -55t95.5 -34q13 0 21.5 5t13.5 17t7 19.5t4 25.5t3 23h154q-4 -122 -47.5 -183.5t-120.5 -61.5q-54 0 -155 58t-136 62q-23 0 -32.5 -22t-16.5 -74h-154z" />
<glyph unicode="&#xa1;" horiz-adv-x="710" d="M205 1284q0 62 44 106t105 44q64 0 108 -44t44 -106q0 -63 -44 -107t-108 -44q-62 0 -105.5 44t-43.5 107zM236 -14v477l45 553h149l41 -553v-477h-235z" />
<glyph unicode="&#xa5;" horiz-adv-x="1372" d="M41 1434h287l358 -498l358 498h287l-311 -430h180v-181h-309l-88 -123v-22h397v-180h-397v-498h-234v498h-397v180h397v22l-88 123h-309v181h178z" />
<glyph unicode="&#xa6;" horiz-adv-x="849" d="M328 -172v801h174v-801h-174zM328 803v803h174v-803h-174z" />
<glyph unicode="&#xa7;" horiz-adv-x="1705" d="M694 133l119 109q23 -29 89 -63t124 -34q67 0 116.5 32t49.5 99q0 38 -39.5 73.5t-155.5 78.5q-66 24 -112 48.5t-85.5 58.5t-59 79.5t-19.5 102.5q0 73 35 133.5t98 97.5q-133 83 -133 221q0 120 86.5 199.5t222.5 79.5q74 0 157 -30t128 -68l-101 -123q-9 7 -25 17 t-62.5 27t-90.5 17q-71 0 -112 -31t-41 -86q0 -49 44 -80t126 -59q166 -58 233.5 -130t67.5 -173q0 -71 -34 -131.5t-95 -99.5q69 -45 99 -99t30 -125q0 -121 -94 -204.5t-234 -83.5q-95 0 -185 44t-147 103zM877 721q0 -53 45.5 -89t111.5 -36q63 0 108 34.5t50 84.5 q0 17 -8 37.5t-25 43t-50 37.5t-75 15q-66 0 -111.5 -37t-45.5 -90z" />
<glyph unicode="&#xa8;" horiz-adv-x="806" d="M102 1628q0 46 33.5 79.5t79.5 33.5t78.5 -33.5t32.5 -79.5t-32.5 -78t-78.5 -32t-79.5 32.5t-33.5 77.5zM481 1628q0 46 33.5 79.5t79.5 33.5t78.5 -33.5t32.5 -79.5t-32.5 -78t-78.5 -32t-79.5 32.5t-33.5 77.5z" />
<glyph unicode="&#xa9;" horiz-adv-x="1652" d="M102 715q0 155 60.5 291.5t160.5 230.5t232 148.5t272 54.5q145 0 278.5 -58t231 -155t155.5 -231.5t58 -280.5q0 -155 -61 -292t-162 -230t-231.5 -147t-268.5 -54q-143 0 -276 56t-232 152t-158 230.5t-59 284.5zM242 715q0 -119 46.5 -227t125 -186t186.5 -124.5 t227 -46.5q158 0 292.5 78.5t213 213t78.5 292.5q0 154 -78 289.5t-213.5 217t-292.5 81.5q-159 0 -294 -79.5t-213 -214.5t-78 -294zM479 717q0 150 105 251t247 101q69 0 134 -26.5t112 -75.5l-78 -78q-70 67 -168 67q-99 0 -169 -70t-70 -169t70 -169.5t169 -70.5 q101 0 179 78l80 -78q-112 -112 -259 -112q-77 0 -144 30t-112 79.5t-70.5 112.5t-25.5 130z" />
<glyph unicode="&#xad;" horiz-adv-x="1527" d="M307 600v234h914v-234h-914z" />
<glyph unicode="&#xae;" horiz-adv-x="1652" d="M102 715q0 155 60.5 291.5t160.5 230.5t232 148.5t272 54.5q145 0 278.5 -58t231 -155t155.5 -231.5t58 -280.5q0 -155 -61 -292t-162 -230t-231.5 -147t-268.5 -54q-143 0 -276 56t-232 152t-158 230.5t-59 284.5zM242 715q0 -119 46.5 -227t125 -186t186.5 -124.5 t227 -46.5q158 0 292.5 78.5t213 213t78.5 292.5q0 154 -78 289.5t-213.5 217t-292.5 81.5q-159 0 -294 -79.5t-213 -214.5t-78 -294zM592 373v688h276q84 0 145.5 -60.5t61.5 -146.5q0 -65 -38 -119t-97 -76l207 -286h-137l-197 274h-108v-274h-113zM705 758h137 q59 0 91 27t32 69t-32 69t-91 27h-137v-192z" />
<glyph unicode="&#xb0;" horiz-adv-x="782" d="M102 1157q0 120 84.5 205.5t204.5 85.5q116 0 202.5 -86t86.5 -205q0 -118 -85 -202.5t-204 -84.5t-204 84t-85 203zM227 1157q0 -66 48.5 -114t115.5 -48t114.5 48t47.5 114q0 69 -47.5 116.5t-114.5 47.5q-68 0 -116 -47.5t-48 -116.5z" />
<glyph unicode="&#xb1;" horiz-adv-x="1705" d="M496 0h1063v233h-1063v-233zM567 600v234h340v340h234v-340h340v-234h-340v-340h-234v340h-340z" />
<glyph unicode="&#xb4;" horiz-adv-x="724" d="M205 1524l194 284h224l-242 -284h-176z" />
<glyph unicode="&#xb6;" horiz-adv-x="1349" d="M82 1016q0 110 57.5 207t154 154t206.5 57h313v-1434h-180v596h-133q-170 0 -294 124t-124 296zM262 1016q0 -108 79 -174t216 -66h76v477h-76q-135 0 -215 -65t-80 -172zM965 0h180v1434h-180v-1434z" />
<glyph unicode="&#xb7;" horiz-adv-x="710" d="M205 715q0 63 43.5 107t105.5 44q64 0 108 -44t44 -107q0 -62 -44 -106t-108 -44q-61 0 -105 44t-44 106z" />
<glyph unicode="&#xb8;" horiz-adv-x="573" d="M102 -387l21 108q58 -30 119 -30q43 0 71.5 21t28.5 67q0 25 -13.5 44t-39 31.5t-46.5 19.5t-53 15l27 99h127l-20 -54q64 -14 105.5 -59t41.5 -106q0 -96 -61 -144.5t-142 -48.5q-37 0 -87 11.5t-79 25.5z" />
<glyph unicode="&#xbf;" horiz-adv-x="1705" d="M639 369q0 108 54 188t190 170q73 49 92.5 88.5t19.5 136.5v78h213v-43q0 -129 -13.5 -197t-50 -116t-116.5 -101q-98 -64 -133 -105t-35 -95q0 -73 58.5 -130t140.5 -57q76 0 133 50t57 110v25h211q0 -170 -108.5 -277.5t-290.5 -107.5q-105 0 -200 45.5t-158.5 135 t-63.5 202.5zM952 1298q0 62 44 106t108 44q61 0 105 -44t44 -106q0 -63 -43.5 -107t-105.5 -44q-64 0 -108 44t-44 107z" />
<glyph unicode="&#xc0;" d="M41 0l637 1448h82l645 -1448h-254l-121 274h-616l-121 -274h-252zM397 1808h224l194 -284h-176zM516 506h410l-205 463z" />
<glyph unicode="&#xc1;" d="M41 0l637 1448h82l645 -1448h-254l-121 274h-616l-121 -274h-252zM516 506h410l-205 463zM629 1524l194 284h224l-242 -284h-176z" />
<glyph unicode="&#xc2;" d="M41 0l637 1448h82l645 -1448h-254l-121 274h-616l-121 -274h-252zM410 1524l247 260h129l248 -260h-203l-110 135l-100 -135h-211zM516 506h410l-205 463z" />
<glyph unicode="&#xc3;" d="M41 0l637 1448h82l645 -1448h-254l-121 274h-616l-121 -274h-252zM389 1561q14 245 166 245q41 0 92.5 -25.5t105 -54.5t95.5 -34q13 0 21.5 5t13.5 17t7 19.5t4 25.5t3 23h154q-4 -122 -47.5 -184t-120.5 -62q-43 0 -98 28t-107.5 58.5t-85.5 34.5q-23 0 -32.5 -22 t-16.5 -74h-154zM516 506h410l-205 463z" />
<glyph unicode="&#xc4;" d="M41 0l637 1448h82l645 -1448h-254l-121 274h-616l-121 -274h-252zM424 1628q0 46 33.5 79.5t79.5 33.5q45 0 77.5 -33.5t32.5 -79.5t-32 -78t-78 -32t-79.5 32.5t-33.5 77.5zM516 506h410l-205 463zM803 1628q0 46 33 79.5t79 33.5t78.5 -33.5t32.5 -79.5t-32.5 -78 t-78.5 -32t-79 32t-33 78z" />
<glyph unicode="&#xc5;" d="M41 0l592 1348q-96 65 -96 163q0 74 55 130.5t131 56.5t131 -56t55 -131q0 -51 -27.5 -96.5t-74.5 -71.5l598 -1343h-254l-121 274h-616l-121 -274h-252zM516 506h410l-205 463zM664 1511q0 -25 17 -42t42 -17t41 17t16 42t-18 42.5t-39 17.5q-25 0 -42 -17.5t-17 -42.5z " />
<glyph unicode="&#xc6;" horiz-adv-x="1943" d="M41 0l631 1434h1149v-232h-676v-368h495v-234h-495v-369h676v-231h-908v274h-499l-121 -274h-252zM516 506h397v696h-88z" />
<glyph unicode="&#xc7;" horiz-adv-x="1705" d="M391 715q0 156 60.5 294.5t161 233.5t233 150t274.5 55q143 0 278 -55t236 -156l-164 -164q-69 69 -160 106.5t-190 37.5q-135 0 -250 -68t-181 -183.5t-66 -250.5q0 -134 66 -248.5t181 -182t250 -67.5q209 0 373 164l164 -164q-214 -214 -492 -229l-20 -54 q64 -14 105.5 -59t41.5 -106q0 -96 -60.5 -144.5t-141.5 -48.5q-37 0 -87 11.5t-79 25.5l20 108q58 -30 119 -30q43 0 71.5 21t28.5 67q0 25 -13 44t-38.5 31.5t-46.5 19.5t-53 15l26 101q-144 15 -267 82t-205.5 167t-128.5 223.5t-46 252.5z" />
<glyph unicode="&#xc8;" horiz-adv-x="1224" d="M205 0v1434h897v-232h-666v-368h486v-234h-486v-369h666v-231h-897zM317 1808h224l194 -284h-176z" />
<glyph unicode="&#xc9;" horiz-adv-x="1224" d="M205 0v1434h897v-232h-666v-368h486v-234h-486v-369h666v-231h-897zM539 1524l194 284h223l-241 -284h-176z" />
<glyph unicode="&#xca;" horiz-adv-x="1224" d="M205 0v1434h897v-232h-666v-368h486v-234h-486v-369h666v-231h-897zM336 1524l248 260h129l248 -260h-203l-111 135l-100 -135h-211z" />
<glyph unicode="&#xcb;" horiz-adv-x="1224" d="M205 0v1434h897v-232h-666v-368h486v-234h-486v-369h666v-231h-897zM354 1628q0 46 33.5 79.5t79.5 33.5t78.5 -33.5t32.5 -79.5t-32.5 -78t-78.5 -32t-79.5 32.5t-33.5 77.5zM733 1628q0 46 33.5 79.5t79.5 33.5q45 0 77.5 -33.5t32.5 -79.5t-32 -78t-78 -32t-79.5 32.5 t-33.5 77.5z" />
<glyph unicode="&#xcc;" horiz-adv-x="641" d="M-4 1808h223l195 -284h-176zM205 0h231v1434h-231v-1434z" />
<glyph unicode="&#xcd;" horiz-adv-x="641" d="M205 0h231v1434h-231v-1434zM205 1524l194 284h224l-242 -284h-176z" />
<glyph unicode="&#xce;" horiz-adv-x="641" d="M10 1524l248 260h129l248 -260h-203l-110 135l-101 -135h-211zM205 0h231v1434h-231v-1434z" />
<glyph unicode="&#xcf;" horiz-adv-x="641" d="M23 1628q0 46 33 79.5t79 33.5t78.5 -33.5t32.5 -79.5t-32.5 -78t-78.5 -32t-79 32t-33 78zM205 0v1434h231v-1434h-231zM401 1628q0 46 33.5 79.5t79.5 33.5t78.5 -33.5t32.5 -79.5t-32.5 -78t-78.5 -32t-79.5 32.5t-33.5 77.5z" />
<glyph unicode="&#xd0;" horiz-adv-x="1705" d="M162 659v183h215v592h487q209 0 367.5 -91t243 -254t84.5 -374q0 -150 -49.5 -281t-138.5 -227t-220 -151.5t-287 -55.5h-487v659h-215zM608 231h256q130 0 236 64.5t165.5 175.5t59.5 244q0 203 -132 345t-329 142h-256v-360h232v-183h-232v-428z" />
<glyph unicode="&#xd1;" horiz-adv-x="1581" d="M205 0v1448h82l858 -954v940h231v-1448h-86l-854 950v-936h-231zM461 1561q14 245 166 245q41 0 92.5 -25.5t105 -54.5t95.5 -34q13 0 21.5 5t13.5 17t7 19.5t4 25.5t3 23h153q-4 -122 -47.5 -184t-120.5 -62q-43 0 -97.5 28t-107 58.5t-85.5 34.5q-23 0 -33 -22t-17 -74 h-153z" />
<glyph unicode="&#xd2;" horiz-adv-x="1667" d="M102 715q0 -129 40.5 -245t111.5 -203t163.5 -151t199.5 -97t217 -33q155 0 293 61t233 161.5t150 233t55 273.5q0 156 -61.5 294.5t-162.5 233.5t-234 150t-273 55q-154 0 -291.5 -60.5t-233.5 -161t-151.5 -234t-55.5 -277.5zM334 715q0 136 67 251.5t182 183t251 67.5 q133 0 247.5 -67.5t182 -183.5t67.5 -251t-66.5 -249.5t-181 -181.5t-249.5 -67q-206 0 -353 146t-147 352zM506 1808h223l195 -284h-176z" />
<glyph unicode="&#xd3;" horiz-adv-x="1667" d="M102 715q0 -129 40.5 -245t111.5 -203t163.5 -151t199.5 -97t217 -33q155 0 293 61t233 161.5t150 233t55 273.5q0 156 -61.5 294.5t-162.5 233.5t-234 150t-273 55q-154 0 -291.5 -60.5t-233.5 -161t-151.5 -234t-55.5 -277.5zM334 715q0 136 67 251.5t182 183t251 67.5 q133 0 247.5 -67.5t182 -183.5t67.5 -251t-66.5 -249.5t-181 -181.5t-249.5 -67q-206 0 -353 146t-147 352zM741 1524l195 284h223l-241 -284h-177z" />
<glyph unicode="&#xd4;" horiz-adv-x="1667" d="M102 715q0 -129 40.5 -245t111.5 -203t163.5 -151t199.5 -97t217 -33q155 0 293 61t233 161.5t150 233t55 273.5q0 156 -61.5 294.5t-162.5 233.5t-234 150t-273 55q-154 0 -291.5 -60.5t-233.5 -161t-151.5 -234t-55.5 -277.5zM334 715q0 136 67 251.5t182 183t251 67.5 q133 0 247.5 -67.5t182 -183.5t67.5 -251t-66.5 -249.5t-181 -181.5t-249.5 -67q-206 0 -353 146t-147 352zM520 1524l248 260h129l248 -260h-203l-111 135l-100 -135h-211z" />
<glyph unicode="&#xd5;" horiz-adv-x="1667" d="M102 715q0 -129 40.5 -245t111.5 -203t163.5 -151t199.5 -97t217 -33q155 0 293 61t233 161.5t150 233t55 273.5q0 156 -61.5 294.5t-162.5 233.5t-234 150t-273 55q-154 0 -291.5 -60.5t-233.5 -161t-151.5 -234t-55.5 -277.5zM334 715q0 136 67 251.5t182 183t251 67.5 q133 0 247.5 -67.5t182 -183.5t67.5 -251t-66.5 -249.5t-181 -181.5t-249.5 -67q-206 0 -353 146t-147 352zM504 1561q14 245 166 245q41 0 92.5 -25.5t105 -54.5t95.5 -34q13 0 21.5 5t13.5 17t7 19.5t4 25.5t3 23h153q-4 -122 -47.5 -184t-120.5 -62q-43 0 -97.5 28 t-107 58.5t-85.5 34.5q-23 0 -33 -22t-17 -74h-153z" />
<glyph unicode="&#xd6;" horiz-adv-x="1667" d="M102 715q0 144 55.5 277.5t151.5 234t233.5 161t291.5 60.5q140 0 273 -55t234 -150t162.5 -233.5t61.5 -294.5q0 -141 -55 -273.5t-150 -233t-233 -161.5t-293 -61q-110 0 -217 33t-199.5 97t-163.5 151t-111.5 203t-40.5 245zM334 715q0 -206 147 -352t353 -146 q135 0 249.5 67t181 181.5t66.5 249.5t-67.5 251t-182 183.5t-247.5 67.5q-136 0 -251 -67.5t-182 -183t-67 -251.5zM530 1628q0 46 33.5 79.5t79.5 33.5t78.5 -33.5t32.5 -79.5t-32.5 -78t-78.5 -32t-79.5 32.5t-33.5 77.5zM909 1628q0 46 33.5 79.5t79.5 33.5t78.5 -33.5 t32.5 -79.5t-32.5 -78t-78.5 -32t-79.5 32.5t-33.5 77.5z" />
<glyph unicode="&#xd7;" horiz-adv-x="1705" d="M532 389l328 328l-328 327l164 164l328 -327l328 327l164 -164l-328 -327l328 -328l-164 -164l-328 328l-328 -328z" />
<glyph unicode="&#xd8;" horiz-adv-x="1667" d="M102 715q0 144 55.5 277.5t151.5 234t233.5 161t291.5 60.5q201 0 374 -107l99 125l155 -125l-98 -122q95 -98 148 -227.5t53 -276.5q0 -141 -55 -273.5t-150 -233t-233 -161.5t-293 -61q-201 0 -377 104l-99 -123l-153 125l96 121q-199 206 -199 502zM334 715 q0 -181 115 -318l612 762q-107 58 -227 58q-136 0 -251 -67.5t-182 -183t-67 -251.5zM604 272q110 -55 230 -55q135 0 249.5 67t181 181.5t66.5 249.5q0 183 -117 319z" />
<glyph unicode="&#xd9;" horiz-adv-x="1466" d="M184 537q0 -242 153.5 -396.5t395.5 -154.5t395.5 154.5t153.5 396.5v897h-231v-859q0 -160 -94 -259t-224 -99t-223.5 99t-93.5 259v859h-232v-897zM449 1808h223l194 -284h-176z" />
<glyph unicode="&#xda;" horiz-adv-x="1466" d="M184 537q0 -242 153.5 -396.5t395.5 -154.5t395.5 154.5t153.5 396.5v897h-231v-859q0 -160 -94 -259t-224 -99t-223.5 99t-93.5 259v859h-232v-897zM627 1524l194 284h223l-241 -284h-176z" />
<glyph unicode="&#xdb;" horiz-adv-x="1466" d="M184 537q0 -242 153.5 -396.5t395.5 -154.5t395.5 154.5t153.5 396.5v897h-231v-859q0 -160 -94 -259t-224 -99t-223.5 99t-93.5 259v859h-232v-897zM420 1524l248 260h129l247 -260h-202l-111 135l-100 -135h-211z" />
<glyph unicode="&#xdc;" horiz-adv-x="1466" d="M184 537v897h232v-859q0 -160 93.5 -259t223.5 -99t224 99t94 259v859h231v-897q0 -242 -153.5 -396.5t-395.5 -154.5t-395.5 154.5t-153.5 396.5zM432 1628q0 46 33.5 79.5t79.5 33.5q45 0 77.5 -33.5t32.5 -79.5t-32 -78t-78 -32t-79.5 32.5t-33.5 77.5zM811 1628 q0 46 33.5 79.5t79.5 33.5q45 0 77.5 -33.5t32.5 -79.5t-32 -78t-78 -32t-79.5 32.5t-33.5 77.5z" />
<glyph unicode="&#xdd;" horiz-adv-x="1372" d="M41 1434h287l358 -498l358 498h287l-528 -734v-700h-234v700zM588 1524l194 284h224l-242 -284h-176z" />
<glyph unicode="&#xdf;" horiz-adv-x="2230" d="M82 199l172 157q32 -41 127 -90t180 -49q44 0 85 10.5t77 32t58 60t22 88.5q0 27 -10 49t-38 49t-86.5 57.5t-148.5 63.5q-95 35 -162 70.5t-123.5 85t-85 114.5t-28.5 147q0 174 124.5 289t321.5 115q108 0 228.5 -43t185.5 -98l-145 -181q-5 4 -13.5 10t-36.5 21.5 t-56.5 27.5t-70.5 22t-81 10q-104 0 -164 -44.5t-60 -125.5q0 -37 19 -67.5t57.5 -55t76 -41t95.5 -37.5q241 -89 337.5 -190t96.5 -250q0 -176 -135.5 -298t-339.5 -122q-187 0 -346 102q-76 46 -133 111zM1163 199l172 157q32 -41 127 -90t180 -49q44 0 85 10.5t77 32 t58 60t22 88.5q0 21 -5.5 38.5t-22.5 39.5t-47 42.5t-82.5 46t-124.5 52.5q-95 35 -162 70.5t-124 85t-85.5 114.5t-28.5 147q0 174 125 289t322 115q108 0 228 -43t185 -98l-145 -181q-5 4 -13.5 10t-36.5 21.5t-56.5 27.5t-70.5 22t-81 10q-104 0 -163.5 -44.5 t-59.5 -125.5q0 -30 14 -56.5t34.5 -45.5t55.5 -38t66 -32t77 -29q242 -89 338.5 -190t96.5 -250q0 -176 -136 -298t-340 -122q-187 0 -346 102q-76 46 -133 111z" />
<glyph unicode="&#x152;" horiz-adv-x="1845" d="M102 719q0 150 49.5 281t138.5 227t220 151.5t287 55.5h925v-232h-641v-368h461v-234h-461v-369h641v-231h-925q-209 0 -367.5 91t-243 254t-84.5 374zM336 719q0 -132 59 -243.5t165.5 -178t236.5 -66.5h51v971h-51q-130 0 -236 -64t-165.5 -175t-59.5 -244z" />
<glyph unicode="&#x178;" horiz-adv-x="1372" d="M41 1434h287l358 -498l358 498h287l-528 -734v-700h-234v700zM387 1628q0 46 33.5 79.5t79.5 33.5q45 0 77.5 -33.5t32.5 -79.5t-32 -78t-78 -32t-79.5 32.5t-33.5 77.5zM766 1628q0 46 33.5 79.5t79.5 33.5q45 0 77.5 -33.5t32.5 -79.5t-32 -78t-78 -32t-79.5 32.5 t-33.5 77.5z" />
<glyph unicode="&#x2c6;" horiz-adv-x="829" d="M102 1524l248 260h129l248 -260h-203l-110 135l-101 -135h-211z" />
<glyph unicode="&#x2dc;" horiz-adv-x="866" d="M102 1561q14 245 166 245q41 0 92.5 -25.5t105 -54.5t95.5 -34q13 0 21.5 5t13.5 17t7 19.5t4 25.5t3 23h154q-4 -122 -47.5 -184t-120.5 -62q-43 0 -98 28t-107.5 58.5t-85.5 34.5q-23 0 -32.5 -22t-16.5 -74h-154z" />
<glyph unicode="&#x2000;" horiz-adv-x="904" />
<glyph unicode="&#x2001;" horiz-adv-x="1808" />
<glyph unicode="&#x2002;" horiz-adv-x="904" />
<glyph unicode="&#x2003;" horiz-adv-x="1808" />
<glyph unicode="&#x2004;" horiz-adv-x="602" />
<glyph unicode="&#x2005;" horiz-adv-x="452" />
<glyph unicode="&#x2006;" horiz-adv-x="301" />
<glyph unicode="&#x2007;" horiz-adv-x="301" />
<glyph unicode="&#x2008;" horiz-adv-x="226" />
<glyph unicode="&#x2009;" horiz-adv-x="361" />
<glyph unicode="&#x200a;" horiz-adv-x="100" />
<glyph unicode="&#x2010;" horiz-adv-x="1527" d="M307 600v234h914v-234h-914z" />
<glyph unicode="&#x2011;" horiz-adv-x="1527" d="M307 600v234h914v-234h-914z" />
<glyph unicode="&#x2012;" horiz-adv-x="1527" d="M307 600v234h914v-234h-914z" />
<glyph unicode="&#x2013;" horiz-adv-x="1427" d="M102 600v234h1223v-234h-1223z" />
<glyph unicode="&#x2014;" horiz-adv-x="2195" d="M102 600v234h1991v-234h-1991z" />
<glyph unicode="&#x2022;" horiz-adv-x="856" d="M102 717q0 135 95.5 230t230.5 95t230.5 -95t95.5 -230t-95.5 -230.5t-230.5 -95.5t-230.5 95.5t-95.5 230.5z" />
<glyph unicode="&#x2026;" horiz-adv-x="1705" d="M102 127q0 60 41.5 101.5t100.5 41.5q60 0 101.5 -41.5t41.5 -101.5q0 -59 -41.5 -100t-101.5 -41q-59 0 -100.5 41.5t-41.5 99.5zM514 127q0 60 41 101.5t100 41.5q60 0 102 -41.5t42 -101.5q0 -59 -42 -100t-102 -41q-59 0 -100 41t-41 100zM920 127q0 60 41 101.5 t100 41.5q60 0 101.5 -41.5t41.5 -101.5q0 -59 -41.5 -100t-101.5 -41q-59 0 -100 41t-41 100z" />
<glyph unicode="&#x202f;" horiz-adv-x="361" />
<glyph unicode="&#x205f;" horiz-adv-x="452" />
<glyph unicode="&#x20ac;" horiz-adv-x="1593" d="M113 455v184h137q-4 50 -4 76q0 30 4 80h-137v184h180q81 211 269.5 340t412.5 129q143 0 278 -55t236 -156l-164 -164q-69 69 -160 106.5t-190 37.5q-132 0 -244 -65t-180 -173h551v-184h-619q-6 -37 -6 -80q0 -39 6 -76h619v-184h-551q66 -108 179 -173t245 -65 q209 0 373 164l163 -164q-231 -231 -536 -231q-242 0 -422.5 132t-259.5 337h-180z" />
<glyph unicode="&#x2122;" horiz-adv-x="1705" d="M133 1307v127h483v-127h-176v-516h-129v516h-178zM700 791v649h72l287 -285l287 285h71v-649h-129v413l-229 -229l-232 229v-413h-127z" />
<glyph unicode="&#x25fc;" horiz-adv-x="1433" d="M0 0v1434h1434v-1434h-1434z" />
</font>
</defs>
</svg>
