<?xml version="1.0" standalone="no"?>
<!DOCTYPE svg PUBLIC "-//W3C//DTD SVG 1.1//EN" "http://www.w3.org/Graphics/SVG/1.1/DTD/svg11.dtd" >
<svg xmlns="http://www.w3.org/2000/svg">
<metadata></metadata>
<defs>
<font id="porterbold" horiz-adv-x="1486" >
<font-face units-per-em="2048" ascent="1536" descent="-512" />
<missing-glyph horiz-adv-x="491" />
<glyph horiz-adv-x="0" />
<glyph horiz-adv-x="682" />
<glyph horiz-adv-x="0" />
<glyph horiz-adv-x="0" />
<glyph unicode="&#xd;" horiz-adv-x="1998" d="M207 0v1434h272l504 -1022l494 1022h272v-1434h-283v778l-360 -778h-238l-379 786v-786h-282z" />
<glyph unicode=" "  horiz-adv-x="491" />
<glyph unicode="&#x09;" horiz-adv-x="491" />
<glyph unicode="&#xa0;" horiz-adv-x="491" />
<glyph unicode="!" horiz-adv-x="956" d="M293 160q0 73 51 124.5t123 51.5q75 0 125.5 -51t50.5 -125q0 -71 -51 -122.5t-125 -51.5q-72 0 -123 51.5t-51 122.5zM322 944v490h288v-490l-41 -559h-202z" />
<glyph unicode="&#x22;" horiz-adv-x="727" d="M113 969l37 465h233l-92 -465h-178zM397 969l37 465h232l-91 -465h-178z" />
<glyph unicode="#" horiz-adv-x="1746" d="M422 362v277h240q3 21 11.5 71.5t12.5 84.5h-197v276h234q7 60 25.5 185.5t25.5 177.5h277l-50 -363h144q3 21 23 159.5t28 203.5h279l-52 -363h197v-276h-236q-4 -29 -10.5 -80.5t-9.5 -75.5h190v-277h-231q-7 -60 -25.5 -185t-25.5 -177h-277l52 362h-144 q-3 -25 -23 -161t-28 -201h-279l52 362h-203zM940 639h145l19 156h-141q-3 -30 -11.5 -79.5t-11.5 -76.5z" />
<glyph unicode="$" horiz-adv-x="1189" d="M66 223l213 197q36 -46 125.5 -98t164.5 -52q50 0 93 13.5t74.5 49.5t31.5 89q0 82 -250 180q-94 35 -161.5 71.5t-124.5 87t-86 118t-29 151.5q0 150 91.5 260.5t244.5 145.5v196h227v-194q95 -17 185.5 -59.5t148.5 -94.5l-176 -221q-5 4 -14.5 11t-38.5 24t-57.5 30 t-68 24t-73.5 11q-86 0 -134.5 -34.5t-48.5 -96.5q0 -23 12 -43t30 -35.5t48 -31.5t57.5 -27t67.5 -25q242 -90 339.5 -193.5t97.5 -256.5q0 -155 -104.5 -272.5t-270.5 -151.5v-195h-227v195q-128 26 -232 94l2 -2q-74 45 -157 135z" />
<glyph unicode="%" horiz-adv-x="2461" d="M309 1053q0 164 114 279.5t277 115.5q160 0 276 -116t116 -279q0 -160 -115.5 -274.5t-276.5 -114.5q-164 0 -277.5 113.5t-113.5 275.5zM598 0q142 226 459.5 716.5t458.5 717.5h325l-917 -1434h-326zM598 1053q0 -41 29.5 -70t72.5 -29t73 29t30 70q0 43 -30.5 73.5 t-72.5 30.5q-43 0 -72.5 -30t-29.5 -74zM1370 383q0 160 115 276.5t276 116.5q160 0 275.5 -116.5t115.5 -276.5q0 -163 -115 -278t-276 -115t-276 115t-115 278zM1659 383q0 -43 29.5 -72.5t72.5 -29.5t73 29.5t30 72.5q0 40 -30.5 71t-72.5 31t-72 -30t-30 -72z" />
<glyph unicode="&#x26;" horiz-adv-x="1826" d="M303 403q0 107 57 210t152 171l70 52q-111 144 -111 264q0 155 98 251.5t260 96.5q150 0 255.5 -96t105.5 -234q0 -95 -49.5 -168t-165.5 -166l192 -227l193 195l176 -187l-203 -219l285 -346h-350l-125 156q-193 -170 -393 -170q-192 0 -319.5 117.5t-127.5 299.5z M573 408q0 -67 49.5 -113.5t120.5 -46.5q96 0 228 114l-221 269q-111 -79 -144 -122t-33 -101zM739 1128q0 -47 76 -141q60 48 82.5 76t22.5 59q0 36 -26.5 56t-68.5 20q-35 0 -60.5 -17.5t-25.5 -52.5z" />
<glyph unicode="'" horiz-adv-x="432" d="M111 969l36 465h234l-92 -465h-178z" />
<glyph unicode="(" horiz-adv-x="1122" d="M297 717q0 252 115.5 489.5t320.5 407.5l182 -217q-160 -128 -247.5 -308t-87.5 -372q0 -194 87.5 -373t247.5 -307l-182 -217q-204 168 -320 403t-116 494z" />
<glyph unicode=")" horiz-adv-x="1122" d="M184 37q159 128 246.5 307.5t87.5 372.5q0 192 -87.5 372t-246.5 308l183 217q205 -170 320.5 -407.5t115.5 -489.5q0 -259 -116 -494t-320 -403z" />
<glyph unicode="*" horiz-adv-x="1746" d="M631 1069l69 211l211 -70v224h224v-222l208 68l68 -211l-209 -70l131 -180l-182 -127l-129 178l-129 -178l-182 127l131 182z" />
<glyph unicode="+" horiz-adv-x="1568" d="M299 573v287h326v326h286v-326h324v-287h-324v-325h-286v325h-326z" />
<glyph unicode="," horiz-adv-x="827" d="M182 -166l166 477h289l-248 -477h-207z" />
<glyph unicode="-" horiz-adv-x="1568" d="M299 573v287h936v-287h-936z" />
<glyph unicode="." horiz-adv-x="751" d="M193 160q0 73 51 124.5t123 51.5q75 0 125.5 -51t50.5 -125q0 -71 -51 -122.5t-125 -51.5q-72 0 -123 51.5t-51 122.5z" />
<glyph unicode="/" d="M223 0l695 1434h315l-694 -1434h-316z" />
<glyph unicode="0" horiz-adv-x="1310" d="M139 717q0 218 55 380.5t169.5 256.5t277.5 94q238 0 370 -196.5t132 -534.5q0 -217 -55 -379.5t-169.5 -257t-277.5 -94.5q-160 0 -273.5 90.5t-171 254t-57.5 386.5zM424 717q0 -209 56 -328t161 -119q73 0 122.5 57.5t72 156t22.5 233.5q0 212 -55.5 329t-161.5 117 t-161.5 -120t-55.5 -326z" />
<glyph unicode="1" horiz-adv-x="917" d="M43 1047l522 387h117v-1434h-283v956l-186 -139z" />
<glyph unicode="2" horiz-adv-x="1200" d="M115 1077q43 177 160 274t290 97q195 0 314.5 -125.5t119.5 -316.5q0 -124 -46 -231t-150 -238h-2q-29 -36 -66 -83.5t-68 -86.5t-67 -82h426v-285h-907v135l465 584q74 94 103.5 152t29.5 135q0 69 -37 113t-115 44q-71 0 -112.5 -37t-63.5 -118z" />
<glyph unicode="3" horiz-adv-x="1282" d="M117 418l280 71q5 -91 65 -155t142 -64q85 0 145 56.5t60 134.5v18q0 78 -60 134.5t-145 56.5h-63l-125 137l164 342h-334v285h784l-244 -514q90 -34 161 -99.5t110 -152.5v-2q39 -92 39 -187v-18q0 -101 -41.5 -190.5t-109.5 -151t-157 -97.5t-184 -36q-178 0 -318 123 t-169 309z" />
<glyph unicode="4" horiz-adv-x="1224" d="M70 262v211l596 961h245v-885h179v-287h-179v-262h-284v262h-557zM451 549h176v280z" />
<glyph unicode="5" horiz-adv-x="1255" d="M143 416l281 73q10 -98 67 -158.5t132 -60.5q92 0 147 60.5t55 138.5q0 88 -57 145.5t-143 57.5q-73 0 -117 -15.5t-92 -52.5h-197v830h782v-285h-497v-205q43 14 121 14q150 0 261.5 -66.5t167.5 -176t56 -246.5q0 -108 -41 -200t-109.5 -153t-156 -95.5t-180.5 -34.5 q-175 0 -311.5 121t-168.5 309z" />
<glyph unicode="6" horiz-adv-x="1216" d="M139 463v18q6 118 51 213l361 740h315l-233 -476q94 -2 181 -37.5t153 -101.5v2q70 -67 107.5 -156t37.5 -184v-18q0 -99 -40.5 -188.5t-107 -152.5t-155.5 -99.5t-184 -36.5q-132 0 -245 67.5t-177 177t-64 232.5zM424 463q0 -80 59 -136.5t142 -56.5q84 0 143 56.5 t59 136.5v18q0 80 -59 136.5t-143 56.5q-83 0 -142 -56.5t-59 -136.5v-18z" />
<glyph unicode="7" horiz-adv-x="1040" d="M98 1149v285h863v-162l-533 -1272h-309l481 1149h-502z" />
<glyph unicode="8" horiz-adv-x="1323" d="M160 465v18q0 101 46 197.5t124 165.5q-64 100 -64 211v14q0 152 111 264.5t270 112.5t271 -113t112 -264v-14q0 -107 -65 -209q87 -72 131 -178q39 -85 39 -187v-18q0 -103 -41.5 -193.5t-110 -152.5t-156.5 -97.5t-180 -35.5q-130 0 -242 64t-178.5 175t-66.5 240z M446 465q0 -80 59 -137.5t142 -57.5q84 0 143.5 57.5t59.5 137.5v18q0 80 -59.5 137.5t-143.5 57.5q-83 0 -142 -57.5t-59 -137.5v-18zM549 1057q0 -37 29 -64.5t69 -27.5t69 27.5t29 64.5v14q0 37 -29 64.5t-69 27.5t-69 -27.5t-29 -64.5v-14z" />
<glyph unicode="9" horiz-adv-x="1216" d="M80 952v19q0 99 40 188.5t107 152.5t155.5 99.5t182.5 36.5q133 0 246 -67.5t176.5 -177t63.5 -232.5v-21q-7 -120 -52 -211l-360 -739h-315l233 475q-196 3 -332 139v-2q-70 67 -107.5 156t-37.5 184zM365 952q0 -80 58.5 -136t141.5 -56q85 0 144 56t59 136v19 q0 80 -59 136t-144 56q-83 0 -141.5 -56t-58.5 -136v-19z" />
<glyph unicode=":" horiz-adv-x="755" d="M193 754q0 73 51 124.5t123 51.5q75 0 125.5 -51t50.5 -125q0 -72 -50.5 -123t-125.5 -51q-72 0 -123 51t-51 123zM197 160q0 73 51 124.5t123 51.5q75 0 125.5 -51t50.5 -125q0 -71 -51 -122.5t-125 -51.5q-72 0 -123 51.5t-51 122.5z" />
<glyph unicode=";" horiz-adv-x="872" d="M182 -166h207l248 477h-289zM311 754q0 73 51 124.5t123 51.5q74 0 125.5 -51.5t51.5 -124.5q0 -72 -52 -123t-125 -51q-72 0 -123 51t-51 123z" />
<glyph unicode="&#x3c;" horiz-adv-x="1767" d="M301 573v285l1028 221v-291l-426 -71l426 -74v-291z" />
<glyph unicode="=" horiz-adv-x="1568" d="M299 381v287h936v-287h-936zM299 829v287h936v-287h-936z" />
<glyph unicode="&#x3e;" horiz-adv-x="1767" d="M401 352v291l424 74l-424 71v291l1029 -221v-285z" />
<glyph unicode="?" horiz-adv-x="1353" d="M199 1016q0 192 112 312t301 120q63 0 126 -17.5t118.5 -52t98 -82t67.5 -111t25 -134.5q0 -108 -57.5 -193.5t-190.5 -175.5q-55 -37 -73.5 -75t-18.5 -115v-107h-267v74q0 131 14 200t51.5 117.5t119.5 102.5q86 57 116.5 92t30.5 76q0 58 -46.5 101.5t-111.5 43.5 q-61 0 -106 -37.5t-45 -83.5v-55h-264zM395 160q0 73 52 124.5t124 51.5q74 0 125.5 -51.5t51.5 -124.5q0 -71 -52 -122.5t-125 -51.5q-72 0 -124 51.5t-52 122.5z" />
<glyph unicode="@" horiz-adv-x="1835" d="M205 717q0 130 40 246.5t109.5 204t161 151.5t197 96.5t213.5 32.5q194 0 356.5 -84t255.5 -236q92 -159 92 -348q0 -118 -35.5 -217t-111 -163t-178.5 -64q-53 0 -95 21t-65 55q-41 -45 -103 -67.5t-127 -22.5q-162 0 -276.5 116.5t-114.5 278.5t114.5 278.5 t276.5 116.5q126 0 207 -70v31q0 9 5.5 15t13.5 6h131q8 0 13 -6t5 -15v-514q0 -29 8.5 -41t18.5 -12q66 0 101.5 76.5t35.5 201.5q0 116 -43.5 211t-117 156t-168 94t-199.5 33q-118 0 -221 -46.5t-174 -124t-111.5 -179.5t-40.5 -211q0 -125 46.5 -232t123.5 -178 t175 -111t202 -40q180 0 346 116q4 4 10 4q11 0 18 -10l62 -106q4 -8 4 -15q0 -11 -8 -16q-110 -76 -211 -109.5t-221 -33.5q-162 0 -300 63t-228.5 166t-141.5 233.5t-51 268.5zM705 709q0 -88 61 -149.5t149 -61.5q83 0 146 47.5t63 118.5v108q0 69 -63.5 116.5 t-145.5 47.5q-88 0 -149 -60.5t-61 -148.5v-18z" />
<glyph unicode="A" d="M27 0l637 1448h120l646 -1448h-314l-117 262h-546q-17 -39 -57.5 -130.5t-57.5 -131.5h-311zM578 547h294l-147 332z" />
<glyph unicode="B" horiz-adv-x="1398" d="M201 0v1434h575q180 0 309 -119t129 -275q0 -80 -35 -157.5t-116 -134.5q100 -48 152.5 -136t52.5 -180q0 -67 -14.5 -126.5t-49.5 -116.5t-89 -98t-139.5 -66t-193.5 -25h-581zM485 285h260q110 0 165 41.5t55 105.5q0 158 -220 158h-260v-305zM485 874h258 q75 0 121.5 36t46.5 96t-47 101.5t-121 41.5h-258v-275z" />
<glyph unicode="C" horiz-adv-x="1490" d="M102 715q0 156 61 294.5t161.5 233.5t233 150t273.5 55q144 0 285 -61t250 -173l-199 -200q-72 72 -159 110.5t-177 38.5q-184 0 -314 -131.5t-130 -316.5q0 -183 130 -314t314 -131q189 0 357 168l201 -198q-254 -254 -558 -254q-161 0 -299.5 62.5t-231.5 164.5 t-145.5 233t-52.5 269z" />
<glyph unicode="D" horiz-adv-x="1550" d="M203 0v1434h497q209 0 367.5 -91t243 -254t84.5 -374q0 -150 -49.5 -281t-138.5 -227t-220 -151.5t-287 -55.5h-497zM485 285h215q174 0 292 124t118 306q0 119 -53 218t-147 156.5t-210 57.5h-215v-862z" />
<glyph unicode="E" horiz-adv-x="1265" d="M199 0v1434h921v-285h-637v-289h465v-287h-465v-288h637v-285h-921z" />
<glyph unicode="F" horiz-adv-x="1224" d="M199 0v1434h921v-285h-637v-289h465v-287h-465v-573h-284z" />
<glyph unicode="G" horiz-adv-x="1548" d="M102 715q0 130 40 246.5t110.5 204t162.5 152t199 97.5t217 33q145 0 283 -59.5t250 -171.5l-195 -205q-75 72 -163 111.5t-175 39.5q-184 0 -314 -131t-130 -317q0 -185 130 -315t314 -130q125 0 238 66v190h-278v285h561v-610q-242 -215 -521 -215q-161 0 -299.5 62 t-231.5 164t-145.5 233t-52.5 270z" />
<glyph unicode="H" horiz-adv-x="1574" d="M203 0v1434h282v-574h570v574h284v-1434h-284v573h-570v-573h-282z" />
<glyph unicode="I" horiz-adv-x="681" d="M193 0v1434h282v-1434h-282z" />
<glyph unicode="J" horiz-adv-x="888" d="M-59 158l196 207l58 -54q25 -22 44 -31.5t46 -9.5q52 0 88.5 37t36.5 88v1039h282v-1039q0 -164 -118.5 -286.5t-288.5 -122.5q-79 0 -157 33.5t-134 93.5l4 -2z" />
<glyph unicode="K" horiz-adv-x="1433" d="M203 0v1434h282v-543l488 543h383l-598 -670l639 -764h-371l-459 553q-63 -73 -82 -92v-461h-282z" />
<glyph unicode="L" horiz-adv-x="1173" d="M199 0v1434h284v-1149h578v-285h-862z" />
<glyph unicode="M" horiz-adv-x="2056" d="M207 0v1448h158l641 -637l643 637h155v-1448h-282v926l-516 -512l-514 512v-926h-285z" />
<glyph unicode="N" horiz-adv-x="1622" d="M203 0v1448h125l774 -860v846h282v-1448h-127l-772 858v-844h-282z" />
<glyph unicode="O" horiz-adv-x="1708" d="M104 715q0 143 56 276.5t152 234.5t233 161.5t291 60.5q140 0 273 -55t234 -150t162.5 -233.5t61.5 -294.5q0 -141 -55 -273.5t-150 -233t-233 -161.5t-293 -61q-110 0 -217 33t-199.5 97t-163.5 151t-111.5 203t-40.5 245zM389 715q0 -121 60.5 -223.5t163.5 -162 t223 -59.5q184 0 314 131t130 314q0 185 -131 316.5t-313 131.5q-121 0 -224 -60t-163 -163t-60 -225z" />
<glyph unicode="P" horiz-adv-x="1331" d="M201 0v1434h579q181 0 312 -130.5t131 -312.5q0 -185 -130.5 -314.5t-312.5 -129.5h-295v-547h-284zM485 829h242q102 0 156.5 46t54.5 116q0 68 -54.5 113t-156.5 45h-242v-320z" />
<glyph unicode="Q" horiz-adv-x="1734" d="M106 715q0 143 55.5 276.5t151.5 234.5t233.5 161.5t291.5 60.5q140 0 272 -55t233 -150t162.5 -233.5t61.5 -294.5q0 -118 -41.5 -234t-114.5 -213l242 -268h-387l-70 78q-171 -92 -358 -92q-110 0 -217 33t-199.5 97t-163.5 151t-111.5 203t-40.5 245zM391 715 q0 -184 131 -314.5t316 -130.5q80 0 159 29q-52 59 -156 174t-128 141l215 193l291 -322q63 110 63 230q0 185 -131.5 316.5t-312.5 131.5q-186 0 -316.5 -131t-130.5 -317z" />
<glyph unicode="R" horiz-adv-x="1478" d="M203 0v1434h579q181 0 312 -130.5t131 -312.5q0 -133 -69 -241t-183 -160l422 -590h-348l-390 547h-172v-547h-282zM485 829h244q102 0 156.5 46t54.5 116q0 68 -54.5 113t-156.5 45h-244v-320z" />
<glyph unicode="S" horiz-adv-x="1189" d="M66 223l213 197q36 -46 125.5 -98t164.5 -52q50 0 93 13.5t74.5 49.5t31.5 89q0 82 -250 180q-94 35 -161.5 71.5t-124.5 87t-86 118t-29 151.5q0 181 127.5 299.5t330.5 118.5q107 0 236.5 -50t202.5 -114l-176 -221q-5 4 -14.5 11t-38.5 24t-57.5 30t-68 24t-73.5 11 q-86 0 -134.5 -34.5t-48.5 -96.5q0 -23 12 -43t30 -35.5t48 -31.5t57.5 -27t67.5 -25q242 -90 339.5 -193.5t97.5 -256.5q0 -183 -138.5 -308.5t-347.5 -125.5q-187 0 -348 102h2q-74 45 -157 135z" />
<glyph unicode="T" horiz-adv-x="1284" d="M90 1149v285h1075v-285h-393v-1149h-285v1149h-397z" />
<glyph unicode="U" horiz-adv-x="1507" d="M182 545v889h283v-852q0 -140 80 -226t192 -86t192.5 86t80.5 226v852h284v-889q0 -245 -156 -402t-401 -157t-400 157t-155 402z" />
<glyph unicode="V" d="M27 1434h311l391 -877q108 248 389 877h312l-639 -1448h-119z" />
<glyph unicode="W" horiz-adv-x="2097" d="M39 1434h297l264 -832l367 846h116l369 -846q49 153 140 443.5t124 392.5h297l-457 -1452h-147l-383 880l-385 -880h-147z" />
<glyph unicode="X" horiz-adv-x="1533" d="M45 0l533 737q-475 657 -504 697h350l328 -455l327 455h351l-504 -697l530 -737h-348l-356 494q-63 -86 -184.5 -254.5t-172.5 -239.5h-350z" />
<glyph unicode="Y" horiz-adv-x="1413" d="M14 1434h351l327 -455l326 455h352l-536 -742v-692h-285v692q-83 114 -267.5 370.5t-267.5 371.5z" />
<glyph unicode="Z" horiz-adv-x="1302" d="M100 0v94l617 1055h-578v285h1022v-86l-620 -1063h633v-285h-1074z" />
<glyph unicode="[" horiz-adv-x="827" d="M274 -162v1761h422v-229h-192v-1302h192v-230h-422z" />
<glyph unicode="\" d="M223 1434h316l694 -1434h-315z" />
<glyph unicode="]" horiz-adv-x="827" d="M113 68h194v1302h-194v229h424v-1761h-424v230z" />
<glyph unicode="^" horiz-adv-x="1746" d="M600 1049l320 385h204l320 -385l-217 -179l-205 242l-205 -242z" />
<glyph unicode="_" horiz-adv-x="1746" d="M410 0v287h1079v-287h-1079z" />
<glyph unicode="`" horiz-adv-x="765" d="M158 1792h297l229 -336h-242z" />
<glyph unicode="a" d="M27 0l637 1448h120l646 -1448h-314l-117 262h-546q-17 -39 -57.5 -130.5t-57.5 -131.5h-311zM578 547h294l-147 332z" />
<glyph unicode="b" horiz-adv-x="1398" d="M201 0v1434h575q180 0 309 -119t129 -275q0 -80 -35 -157.5t-116 -134.5q100 -48 152.5 -136t52.5 -180q0 -67 -14.5 -126.5t-49.5 -116.5t-89 -98t-139.5 -66t-193.5 -25h-581zM485 285h260q110 0 165 41.5t55 105.5q0 158 -220 158h-260v-305zM485 874h258 q75 0 121.5 36t46.5 96t-47 101.5t-121 41.5h-258v-275z" />
<glyph unicode="c" horiz-adv-x="1490" d="M102 715q0 156 61 294.5t161.5 233.5t233 150t273.5 55q144 0 285 -61t250 -173l-199 -200q-72 72 -159 110.5t-177 38.5q-184 0 -314 -131.5t-130 -316.5q0 -183 130 -314t314 -131q189 0 357 168l201 -198q-254 -254 -558 -254q-161 0 -299.5 62.5t-231.5 164.5 t-145.5 233t-52.5 269z" />
<glyph unicode="d" horiz-adv-x="1550" d="M203 0v1434h497q209 0 367.5 -91t243 -254t84.5 -374q0 -150 -49.5 -281t-138.5 -227t-220 -151.5t-287 -55.5h-497zM485 285h215q174 0 292 124t118 306q0 119 -53 218t-147 156.5t-210 57.5h-215v-862z" />
<glyph unicode="e" horiz-adv-x="1265" d="M199 0v1434h921v-285h-637v-289h465v-287h-465v-288h637v-285h-921z" />
<glyph unicode="f" horiz-adv-x="1224" d="M199 0v1434h921v-285h-637v-289h465v-287h-465v-573h-284z" />
<glyph unicode="g" horiz-adv-x="1548" d="M102 715q0 130 40 246.5t110.5 204t162.5 152t199 97.5t217 33q145 0 283 -59.5t250 -171.5l-195 -205q-75 72 -163 111.5t-175 39.5q-184 0 -314 -131t-130 -317q0 -185 130 -315t314 -130q125 0 238 66v190h-278v285h561v-610q-242 -215 -521 -215q-161 0 -299.5 62 t-231.5 164t-145.5 233t-52.5 270z" />
<glyph unicode="h" horiz-adv-x="1574" d="M203 0v1434h282v-574h570v574h284v-1434h-284v573h-570v-573h-282z" />
<glyph unicode="i" horiz-adv-x="681" d="M193 0v1434h282v-1434h-282z" />
<glyph unicode="j" horiz-adv-x="888" d="M-59 158l196 207l58 -54q25 -22 44 -31.5t46 -9.5q52 0 88.5 37t36.5 88v1039h282v-1039q0 -164 -118.5 -286.5t-288.5 -122.5q-79 0 -157 33.5t-134 93.5l4 -2z" />
<glyph unicode="k" horiz-adv-x="1433" d="M203 0v1434h282v-543l488 543h383l-598 -670l639 -764h-371l-459 553q-63 -73 -82 -92v-461h-282z" />
<glyph unicode="l" horiz-adv-x="1173" d="M199 0v1434h284v-1149h578v-285h-862z" />
<glyph unicode="m" horiz-adv-x="2056" d="M207 0v1448h158l641 -637l643 637h155v-1448h-282v926l-516 -512l-514 512v-926h-285z" />
<glyph unicode="n" horiz-adv-x="1622" d="M203 0v1448h125l774 -860v846h282v-1448h-127l-772 858v-844h-282z" />
<glyph unicode="o" horiz-adv-x="1708" d="M111 702q0 141 54.5 272.5t148.5 230.5t229 158.5t286 59.5q137 0 267.5 -54.5t229.5 -148t159.5 -229.5t60.5 -289q0 -138 -54 -268t-147 -229t-228.5 -159t-287.5 -60q-108 0 -213 32.5t-195.5 95.5t-160 148t-109.5 199t-40 241zM389 702q0 -181 129 -308.5 t311 -127.5q180 0 308.5 128t128.5 308q0 119 -59.5 220.5t-160.5 161t-217 59.5q-120 0 -221.5 -59.5t-160 -161t-58.5 -220.5z" />
<glyph unicode="p" horiz-adv-x="1331" d="M201 0v1434h579q181 0 312 -130.5t131 -312.5q0 -185 -130.5 -314.5t-312.5 -129.5h-295v-547h-284zM485 829h242q102 0 156.5 46t54.5 116q0 68 -54.5 113t-156.5 45h-242v-320z" />
<glyph unicode="q" horiz-adv-x="1734" d="M106 715q0 143 55.5 276.5t151.5 234.5t233.5 161.5t291.5 60.5q140 0 272 -55t233 -150t162.5 -233.5t61.5 -294.5q0 -118 -41.5 -234t-114.5 -213l242 -268h-387l-70 78q-171 -92 -358 -92q-110 0 -217 33t-199.5 97t-163.5 151t-111.5 203t-40.5 245zM391 715 q0 -184 131 -314.5t316 -130.5q80 0 159 29q-52 59 -156 174t-128 141l215 193l291 -322q63 110 63 230q0 185 -131.5 316.5t-312.5 131.5q-186 0 -316.5 -131t-130.5 -317z" />
<glyph unicode="r" horiz-adv-x="1478" d="M203 0v1434h579q181 0 312 -130.5t131 -312.5q0 -133 -69 -241t-183 -160l422 -590h-348l-390 547h-172v-547h-282zM485 829h244q102 0 156.5 46t54.5 116q0 68 -54.5 113t-156.5 45h-244v-320z" />
<glyph unicode="s" horiz-adv-x="1189" d="M66 223l213 197q36 -46 125.5 -98t164.5 -52q50 0 93 13.5t74.5 49.5t31.5 89q0 82 -250 180q-94 35 -161.5 71.5t-124.5 87t-86 118t-29 151.5q0 181 127.5 299.5t330.5 118.5q107 0 236.5 -50t202.5 -114l-176 -221q-5 4 -14.5 11t-38.5 24t-57.5 30t-68 24t-73.5 11 q-86 0 -134.5 -34.5t-48.5 -96.5q0 -23 12 -43t30 -35.5t48 -31.5t57.5 -27t67.5 -25q242 -90 339.5 -193.5t97.5 -256.5q0 -183 -138.5 -308.5t-347.5 -125.5q-187 0 -348 102h2q-74 45 -157 135z" />
<glyph unicode="t" horiz-adv-x="1284" d="M90 1149v285h1075v-285h-393v-1149h-285v1149h-397z" />
<glyph unicode="u" horiz-adv-x="1507" d="M182 545v889h283v-852q0 -140 80 -226t192 -86t192.5 86t80.5 226v852h284v-889q0 -245 -156 -402t-401 -157t-400 157t-155 402z" />
<glyph unicode="v" d="M27 1434h311l391 -877q108 248 389 877h312l-639 -1448h-119z" />
<glyph unicode="w" horiz-adv-x="2097" d="M39 1434h297l264 -832l367 846h116l369 -846q49 153 140 443.5t124 392.5h297l-457 -1452h-147l-383 880l-385 -880h-147z" />
<glyph unicode="x" horiz-adv-x="1533" d="M45 0l533 737q-475 657 -504 697h350l328 -455l327 455h351l-504 -697l530 -737h-348l-356 494q-63 -86 -184.5 -254.5t-172.5 -239.5h-350z" />
<glyph unicode="y" horiz-adv-x="1413" d="M14 1434h351l327 -455l326 455h352l-536 -742v-692h-285v692q-83 114 -267.5 370.5t-267.5 371.5z" />
<glyph unicode="z" horiz-adv-x="1302" d="M100 0v94l617 1055h-578v285h1022v-86l-620 -1063h633v-285h-1074z" />
<glyph unicode="{" horiz-adv-x="1003" d="M201 717l184 192v529q0 43 14 74.5t33 47.5t45.5 25.5t44.5 11.5t37 2h248v-229h-195v-555l-94 -98l94 -99v-555h195v-229h-242q-21 0 -40.5 2t-46.5 12t-46 26t-33 47.5t-14 74.5v528q-27 30 -184 193z" />
<glyph unicode="|" horiz-adv-x="911" d="M332 -162v1761h229v-1761h-229z" />
<glyph unicode="}" horiz-adv-x="1003" d="M176 63h193v555l94 99l-94 98v555h-193v229h246q20 0 38 -2t44.5 -11.5t45.5 -25.5t32.5 -47.5t13.5 -74.5v-529q30 -32 184 -192l-184 -193v-528q0 -43 -13.5 -74.5t-32.5 -47.5t-46.5 -26t-46.5 -12t-41 -2h-240v229z" />
<glyph unicode="~" horiz-adv-x="907" d="M94 580q17 297 193 297q20 0 39 -4t44.5 -15.5t34 -16t41.5 -22.5q67 -43 123 -51q8 11 11 39v2v-2v2q0 5 1 24t1 21h213q-6 -148 -56 -222.5t-139 -74.5q-66 0 -176 66q-64 43 -105 49q-7 -5 -16 -92h-209z" />
<glyph unicode="&#xa1;" horiz-adv-x="956" d="M293 1274q0 71 51 122.5t123 51.5q74 0 125 -51.5t51 -122.5q0 -74 -50.5 -125t-125.5 -51q-72 0 -123 51.5t-51 124.5zM322 0h288v489l-41 560h-202l-45 -560v-489z" />
<glyph unicode="&#xa5;" horiz-adv-x="1413" d="M14 1434h351l327 -455l326 455h352l-301 -412h145v-236h-311l-57 -75h368v-236h-380v-475h-285v475h-381v236h367q-8 12 -26.5 35.5t-29.5 39.5h-311v236h141z" />
<glyph unicode="&#xa6;" horiz-adv-x="890" d="M311 -164v828h230v-828h-230zM311 768v829h230v-829h-230z" />
<glyph unicode="&#xa7;" horiz-adv-x="1746" d="M662 160l159 147q28 -32 90.5 -69t112.5 -37q51 0 89 23t38 71q0 26 -35.5 53t-130.5 64q-137 50 -211 120t-74 185q0 65 28.5 122.5t76.5 98.5q-105 88 -105 211q0 129 91 214t237 85q75 0 166.5 -37.5t148.5 -85.5l-135 -164q-10 8 -27.5 20t-64 32t-82.5 20 q-54 0 -85 -22t-31 -60q0 -33 36.5 -56t104.5 -46q171 -61 240 -137t69 -183q0 -135 -102 -221q102 -84 102 -215q0 -129 -98 -218t-246 -89q-98 0 -197.5 52.5t-164.5 121.5zM911 721q0 -37 35 -62.5t86 -25.5q46 0 81 24.5t38 59.5q-2 30 -31 62t-88 32q-51 0 -86 -26.5 t-35 -63.5z" />
<glyph unicode="&#xa8;" horiz-adv-x="847" d="M96 1589q0 57 41 97t99 40q57 0 97 -40t40 -97q0 -58 -40 -97.5t-97 -39.5q-59 0 -99.5 39.5t-40.5 97.5zM459 1589q0 57 40.5 97t98.5 40q57 0 97 -40t40 -97q0 -58 -40 -97.5t-97 -39.5q-59 0 -99 39.5t-40 97.5z" />
<glyph unicode="&#xa9;" horiz-adv-x="1693" d="M104 715q0 155 60.5 291.5t161 230.5t232 148.5t271.5 54.5q145 0 278.5 -58t231 -155t155.5 -231.5t58 -280.5q0 -124 -39.5 -237.5t-109 -200.5t-160.5 -152t-197.5 -99t-216.5 -34q-143 0 -276 56t-232 152t-158 230.5t-59 284.5zM301 715q0 -142 71 -263.5 t193 -192.5t264 -71q143 0 264.5 71t192 192.5t70.5 263.5q0 140 -70.5 262t-192.5 195t-264 73q-143 0 -264.5 -71.5t-192.5 -193.5t-71 -265zM465 717q0 156 110.5 262t258.5 106q71 0 144.5 -34t133.5 -95l-119 -118q-77 77 -159 77t-140.5 -58t-58.5 -140t58.5 -140.5 t140.5 -58.5q81 0 170 86l122 -115q-141 -141 -292 -141q-107 0 -193 53.5t-131 137.5t-45 178z" />
<glyph unicode="&#xad;" horiz-adv-x="1568" d="M299 573v287h936v-287h-936z" />
<glyph unicode="&#xae;" horiz-adv-x="1693" d="M104 715q0 155 60.5 291.5t161 230.5t232 148.5t271.5 54.5q145 0 278.5 -58t231 -155t155.5 -231.5t58 -280.5q0 -124 -39.5 -237.5t-109 -200.5t-160.5 -152t-197.5 -99t-216.5 -34q-143 0 -276 56t-232 152t-158 230.5t-59 284.5zM301 715q0 -142 71 -263.5 t193 -192.5t264 -71q143 0 264.5 71t192 192.5t70.5 263.5q0 140 -70.5 262t-192.5 195t-264 73q-143 0 -264.5 -71.5t-192.5 -193.5t-71 -265zM573 356v721h295q94 0 162 -67t68 -162q0 -62 -31 -115.5t-82 -83.5l211 -293h-207l-188 262h-58v-262h-170zM743 786h101 q41 0 63.5 18t22.5 44t-22.5 43.5t-63.5 17.5h-101v-123z" />
<glyph unicode="&#xb0;" horiz-adv-x="823" d="M96 1139q0 128 90 218.5t217 90.5q124 0 216 -91t92 -218t-91 -217.5t-217 -90.5q-127 0 -217 90t-90 218zM279 1139q0 -51 36 -88t88 -37q51 0 87 37t36 88q0 52 -36.5 88.5t-86.5 36.5q-52 0 -88 -36t-36 -89z" />
<glyph unicode="&#xb1;" horiz-adv-x="1712" d="M299 0h1079v287h-1079v-287zM371 614v287h325v326h287v-326h324v-287h-324v-325h-287v325h-325z" />
<glyph unicode="&#xb4;" horiz-adv-x="765" d="M166 1456l229 336h297l-284 -336h-242z" />
<glyph unicode="&#xb6;" horiz-adv-x="1390" d="M80 1004q0 173 129.5 301.5t302.5 128.5h330v-1434h-236v569h-94q-177 0 -304.5 128.5t-127.5 306.5zM315 1004q0 -90 67 -144.5t183 -54.5h41v393h-41q-114 0 -182 -53.5t-68 -140.5zM987 0h217v1434h-217v-1434z" />
<glyph unicode="&#xb7;" horiz-adv-x="751" d="M193 715q0 73 51 124.5t123 51.5q75 0 125.5 -51t50.5 -125q0 -73 -50.5 -123.5t-125.5 -50.5q-72 0 -123 51t-51 123z" />
<glyph unicode="&#xb8;" horiz-adv-x="614" d="M90 -354l31 168q88 -47 137 -47q28 0 46 13t18 40q0 45 -152 82l39 149h192l-24 -61q60 -22 95.5 -70t35.5 -110q0 -74 -35.5 -124.5t-84.5 -71t-105 -20.5q-38 0 -96 16t-97 36z" />
<glyph unicode="&#xbf;" horiz-adv-x="1746" d="M623 383q0 108 58 193.5t189 175.5q55 38 75 76t20 114v107h266v-74q0 -130 -14.5 -199.5t-52.5 -118t-120 -102.5q-86 -57 -116.5 -92t-30.5 -76q0 -58 47.5 -101.5t112.5 -43.5q60 0 104.5 37.5t44.5 82.5v56h264q0 -192 -111.5 -312t-299.5 -120q-64 0 -127 17.5 t-118.5 52t-98 82t-67.5 111t-25 134.5zM924 1274q0 71 51 122.5t125 51.5q70 0 122 -52t52 -122q0 -73 -51.5 -124.5t-122.5 -51.5q-75 0 -125.5 51t-50.5 125z" />
<glyph unicode="&#xc0;" d="M27 0l637 1448h120l646 -1448h-314l-117 262h-546q-17 -39 -57.5 -130.5t-57.5 -131.5h-311zM350 1792h297l230 -336h-242zM578 547h294l-147 332z" />
<glyph unicode="&#xc1;" d="M27 0l637 1448h120l646 -1448h-314l-117 262h-546q-17 -39 -57.5 -130.5t-57.5 -131.5h-311zM578 547h294l-147 332zM590 1456l229 336h297l-285 -336h-241z" />
<glyph unicode="&#xc2;" d="M27 0l637 1448h120l646 -1448h-314l-117 262h-546q-17 -39 -57.5 -130.5t-57.5 -131.5h-311zM360 1456l297 313h152l297 -313h-281l-90 111q-53 -68 -84 -111h-291zM578 547h294l-147 332z" />
<glyph unicode="&#xc3;" d="M27 0l637 1448h120l646 -1448h-314l-117 262h-546q-17 -39 -57.5 -130.5t-57.5 -131.5h-311zM381 1493q9 153 56.5 225t135.5 72q38 0 74 -15t86 -44q77 -45 123 -52q6 9 10 41v2v-2v2q0 4 1 23t1 22h213q-6 -148 -55.5 -223.5t-138.5 -75.5q-69 0 -176 68 q-71 44 -105 49q-6 -4 -16 -92h-209zM578 547h294l-147 332z" />
<glyph unicode="&#xc4;" d="M27 0l637 1448h120l646 -1448h-314l-117 262h-546q-17 -39 -57.5 -130.5t-57.5 -131.5h-311zM418 1589q0 57 40.5 97t98.5 40q57 0 97 -40t40 -97q0 -58 -40 -97.5t-97 -39.5q-59 0 -99 39.5t-40 97.5zM578 547h294l-147 332zM780 1589q0 57 41 97t99 40q57 0 97 -40 t40 -97q0 -58 -40 -97.5t-97 -39.5q-59 0 -99.5 39.5t-40.5 97.5z" />
<glyph unicode="&#xc5;" d="M27 0l575 1309q-84 63 -84 168q0 84 61.5 146.5t147.5 62.5q88 0 149.5 -61.5t61.5 -147.5q0 -46 -24.5 -93.5t-63.5 -78.5l580 -1305h-314l-117 262h-546q-17 -39 -57.5 -130.5t-57.5 -131.5h-311zM578 547h294l-147 332zM664 1477q0 -27 19.5 -45.5t43.5 -18.5 q29 0 47.5 18t18.5 46q0 31 -19.5 48t-46.5 17q-24 0 -43.5 -18.5t-19.5 -46.5z" />
<glyph unicode="&#xc6;" horiz-adv-x="1984" d="M31 0l631 1434h1150v-285h-645v-289h473v-287h-473v-288h645v-285h-929v262h-424q-99 -219 -117 -262h-311zM584 547h299v602h-31z" />
<glyph unicode="&#xc7;" horiz-adv-x="1746" d="M385 715q0 156 61 294.5t161.5 233.5t233 150t273.5 55q143 0 283 -61t252 -173l-199 -200q-72 72 -159 110.5t-177 38.5q-184 0 -314 -131.5t-130 -316.5q0 -183 130 -314t314 -131q188 0 356 168l201 -198q-226 -226 -489 -250q58 -24 93.5 -71.5t35.5 -108.5 q0 -56 -20.5 -99t-54.5 -67.5t-72.5 -37t-78.5 -12.5q-38 0 -97 16t-97 36l31 168q88 -47 137 -47q65 0 65 53q0 46 -153 82l26 92q-110 17 -208 64.5t-171 117.5t-126 157t-80 184.5t-27 197.5z" />
<glyph unicode="&#xc8;" horiz-adv-x="1265" d="M199 0v1434h921v-285h-637v-289h465v-287h-465v-288h637v-285h-921zM270 1792h297l230 -336h-242z" />
<glyph unicode="&#xc9;" horiz-adv-x="1265" d="M199 0v1434h921v-285h-637v-289h465v-287h-465v-288h637v-285h-921zM500 1456l229 336h297l-285 -336h-241z" />
<glyph unicode="&#xca;" horiz-adv-x="1265" d="M199 0v1434h921v-285h-637v-289h465v-287h-465v-288h637v-285h-921zM287 1456l297 313h151l297 -313h-280l-90 111q-53 -68 -84 -111h-291z" />
<glyph unicode="&#xcb;" horiz-adv-x="1265" d="M199 0v1434h921v-285h-637v-289h465v-287h-465v-288h637v-285h-921zM348 1589q0 57 40.5 97t98.5 40q57 0 97.5 -40t40.5 -97q0 -58 -40.5 -97.5t-97.5 -39.5q-59 0 -99 39.5t-40 97.5zM711 1589q0 57 40.5 97t98.5 40q57 0 97 -40t40 -97q0 -58 -40 -97.5t-97 -39.5 q-59 0 -99 39.5t-40 97.5z" />
<glyph unicode="&#xcc;" horiz-adv-x="681" d="M-51 1792h297l229 -336h-242zM193 0h282v1434h-282v-1434z" />
<glyph unicode="&#xcd;" horiz-adv-x="681" d="M166 1456l229 336h297l-284 -336h-242zM193 0h282v1434h-282v-1434z" />
<glyph unicode="&#xce;" horiz-adv-x="681" d="M-39 1456l297 313h152l297 -313h-281l-90 111q-53 -68 -84 -111h-291zM193 0h282v1434h-282v-1434z" />
<glyph unicode="&#xcf;" horiz-adv-x="681" d="M16 1589q0 57 41 97t99 40q57 0 97 -40t40 -97q0 -58 -40 -97.5t-97 -39.5q-59 0 -99.5 39.5t-40.5 97.5zM193 0v1434h282v-1434h-282zM379 1589q0 57 40.5 97t98.5 40q57 0 97 -40t40 -97q0 -58 -40 -97.5t-97 -39.5q-59 0 -99 39.5t-40 97.5z" />
<glyph unicode="&#xd0;" horiz-adv-x="1746" d="M162 631v237h207v566h497q209 0 367.5 -91t243 -254t84.5 -374q0 -150 -49.5 -281t-138.5 -227t-220 -151.5t-287 -55.5h-497v631h-207zM651 285h215q174 0 292 124t118 306t-117.5 308t-292.5 126h-215v-281h223v-237h-223v-346z" />
<glyph unicode="&#xd1;" horiz-adv-x="1622" d="M203 0v1448h125l774 -860v846h282v-1448h-127l-772 858v-844h-282zM453 1493q9 153 56.5 225t135.5 72q38 0 74 -15t86 -44q77 -45 123 -52q6 9 10 41v2v-2v2q0 4 1 23t1 22h213q-6 -148 -56 -223.5t-139 -75.5q-69 0 -176 68q-72 45 -104 49q-6 -4 -16 -92h-209z" />
<glyph unicode="&#xd2;" horiz-adv-x="1708" d="M104 715q0 -129 40.5 -245t111.5 -203t163.5 -151t199.5 -97t217 -33q155 0 293 61t233 161.5t150 233t55 273.5q0 156 -61.5 294.5t-162.5 233.5t-234 150t-273 55q-154 0 -291 -60.5t-233 -161.5t-152 -234.5t-56 -276.5zM389 715q0 122 60 225t163 163t224 60 q182 0 313 -131.5t131 -316.5q0 -183 -130 -314t-314 -131q-120 0 -223 59.5t-163.5 162t-60.5 223.5zM463 1823h297l229 -336h-241z" />
<glyph unicode="&#xd3;" horiz-adv-x="1708" d="M104 715q0 -129 40.5 -245t111.5 -203t163.5 -151t199.5 -97t217 -33q155 0 293 61t233 161.5t150 233t55 273.5q0 156 -61.5 294.5t-162.5 233.5t-234 150t-273 55q-154 0 -291 -60.5t-233 -161.5t-152 -234.5t-56 -276.5zM389 715q0 122 60 225t163 163t224 60 q182 0 313 -131.5t131 -316.5q0 -183 -130 -314t-314 -131q-120 0 -223 59.5t-163.5 162t-60.5 223.5zM696 1487l230 336h297l-285 -336h-242z" />
<glyph unicode="&#xd4;" horiz-adv-x="1708" d="M104 715q0 -129 40.5 -245t111.5 -203t163.5 -151t199.5 -97t217 -33q155 0 293 61t233 161.5t150 233t55 273.5q0 156 -61.5 294.5t-162.5 233.5t-234 150t-273 55q-154 0 -291 -60.5t-233 -161.5t-152 -234.5t-56 -276.5zM389 715q0 122 60 225t163 163t224 60 q182 0 313 -131.5t131 -316.5q0 -183 -130 -314t-314 -131q-120 0 -223 59.5t-163.5 162t-60.5 223.5zM471 1487l297 313h152l297 -313h-281l-90 110q-61 -78 -84 -110h-291z" />
<glyph unicode="&#xd5;" horiz-adv-x="1708" d="M104 715q0 -129 40.5 -245t111.5 -203t163.5 -151t199.5 -97t217 -33q155 0 293 61t233 161.5t150 233t55 273.5q0 156 -61.5 294.5t-162.5 233.5t-234 150t-273 55q-154 0 -291 -60.5t-233 -161.5t-152 -234.5t-56 -276.5zM389 715q0 122 60 225t163 163t224 60 q182 0 313 -131.5t131 -316.5q0 -183 -130 -314t-314 -131q-120 0 -223 59.5t-163.5 162t-60.5 223.5zM496 1524q9 153 56.5 225t135.5 72q27 0 57 -9.5t49 -20t54 -30.5q74 -44 123 -51q6 9 10 41v2v-2v2q0 4 1 23t1 22h213q-6 -148 -56 -223.5t-139 -75.5q-69 0 -176 68 q-72 45 -104 49q-6 -4 -16 -92h-209z" />
<glyph unicode="&#xd6;" horiz-adv-x="1708" d="M104 715q0 143 56 276.5t152 234.5t233 161.5t291 60.5q140 0 273 -55t234 -150t162.5 -233.5t61.5 -294.5q0 -141 -55 -273.5t-150 -233t-233 -161.5t-293 -61q-110 0 -217 33t-199.5 97t-163.5 151t-111.5 203t-40.5 245zM389 715q0 -121 60.5 -223.5t163.5 -162 t223 -59.5q184 0 314 131t130 314q0 185 -131 316.5t-313 131.5q-121 0 -224 -60t-163 -163t-60 -225zM524 1620q0 57 41 97t99 40q57 0 97 -40t40 -97q0 -58 -40 -97.5t-97 -39.5q-59 0 -99.5 39.5t-40.5 97.5zM887 1620q0 57 40.5 97t98.5 40q57 0 97 -40t40 -97 q0 -58 -40 -97.5t-97 -39.5q-59 0 -99 39.5t-40 97.5z" />
<glyph unicode="&#xd7;" horiz-adv-x="1746" d="M510 403l313 314l-313 313l199 201l313 -313l313 313l201 -201l-313 -313l313 -314l-201 -200l-313 313l-313 -313z" />
<glyph unicode="&#xd8;" horiz-adv-x="1708" d="M104 715q0 143 56 276.5t152 234.5t233 161.5t291 60.5q190 0 352 -92l96 121l197 -158l-99 -121q185 -205 185 -483q0 -141 -55 -273.5t-150 -233t-233 -161.5t-293 -61q-184 0 -353 90l-98 -119l-195 158l95 118q-181 194 -181 482zM389 715q0 -139 76 -252 q94 118 271 334.5t268 330.5q-89 35 -168 35q-121 0 -224 -60t-163 -163t-60 -225zM666 301q82 -31 170 -31q184 0 314 131t130 314q0 143 -78 254q-424 -527 -536 -668z" />
<glyph unicode="&#xd9;" horiz-adv-x="1507" d="M182 545q0 -245 155 -402t400 -157t401 157t156 402v889h-284v-852q0 -140 -80.5 -226t-192.5 -86t-192 86t-80 226v852h-283v-889zM401 1792h297l230 -336h-242z" />
<glyph unicode="&#xda;" horiz-adv-x="1507" d="M182 545q0 -245 155 -402t400 -157t401 157t156 402v889h-284v-852q0 -140 -80.5 -226t-192.5 -86t-192 86t-80 226v852h-283v-889zM588 1456l229 336h297l-285 -336h-241z" />
<glyph unicode="&#xdb;" horiz-adv-x="1507" d="M182 545q0 -245 155 -402t400 -157t401 157t156 402v889h-284v-852q0 -140 -80.5 -226t-192.5 -86t-192 86t-80 226v852h-283v-889zM371 1456l297 313h151l297 -313h-280l-91 111q-42 -53 -83 -111h-291z" />
<glyph unicode="&#xdc;" horiz-adv-x="1507" d="M182 545v889h283v-852q0 -140 80 -226t192 -86t192.5 86t80.5 226v852h284v-889q0 -245 -156 -402t-401 -157t-400 157t-155 402zM426 1589q0 57 40.5 97t98.5 40q57 0 97 -40t40 -97q0 -58 -40 -97.5t-97 -39.5q-59 0 -99 39.5t-40 97.5zM788 1589q0 57 41 97t99 40 q57 0 97 -40t40 -97q0 -58 -40 -97.5t-97 -39.5q-59 0 -99.5 39.5t-40.5 97.5z" />
<glyph unicode="&#xdd;" horiz-adv-x="1413" d="M14 1434h351l327 -455l326 455h352l-536 -742v-692h-285v692q-83 114 -267.5 370.5t-267.5 371.5zM549 1456l229 336h297l-284 -336h-242z" />
<glyph unicode="&#xdf;" horiz-adv-x="2271" d="M86 219l209 193q34 -44 123.5 -95t163.5 -51q79 0 136.5 36t57.5 112q0 82 -246 178q-92 34 -158.5 70t-123 85.5t-85 116t-28.5 148.5q0 177 126 294t325 117q106 0 232.5 -48.5t199.5 -110.5l-174 -220q-14 11 -38.5 27.5t-90 44t-119.5 27.5q-84 0 -131 -33.5 t-47 -95.5q0 -51 54 -86.5t157 -73.5q239 -87 334.5 -188.5t95.5 -253.5q0 -179 -136.5 -302.5t-340.5 -123.5q-186 0 -344 100h2q-95 60 -154 133zM1102 219l211 193q35 -44 122.5 -95t161.5 -51q79 0 138 36t59 112q0 81 -248 178q-92 34 -158.5 70t-122 85.5t-84 115.5 t-28.5 149q0 177 125.5 294t325.5 117q104 0 230.5 -48.5t199.5 -110.5l-172 -220q-14 11 -38.5 27.5t-90.5 44t-121 27.5q-83 0 -130.5 -33.5t-47.5 -95.5q0 -51 54 -86.5t157 -73.5q239 -87 334.5 -188.5t95.5 -253.5q0 -178 -137 -302t-341 -124q-186 0 -344 100h2 q-75 48 -153 133z" />
<glyph unicode="&#x152;" horiz-adv-x="1886" d="M106 719q0 201 84.5 363t244.5 257t368 95h915v-285h-612v-289h440v-287h-440v-288h612v-285h-915q-157 0 -288 53t-220.5 147.5t-139 227.5t-49.5 291zM393 719q0 -181 117 -307.5t293 -126.5h16v864h-16q-176 0 -293 -124t-117 -306z" />
<glyph unicode="&#x178;" horiz-adv-x="1413" d="M14 1434h351l327 -455l326 455h352l-536 -742v-692h-285v692q-83 114 -267.5 370.5t-267.5 371.5zM381 1589q0 57 40.5 97t98.5 40q57 0 97 -40t40 -97q0 -58 -40 -97.5t-97 -39.5q-59 0 -99 39.5t-40 97.5zM743 1589q0 57 41 97t99 40q57 0 97 -40t40 -97 q0 -58 -40 -97.5t-97 -39.5q-59 0 -99.5 39.5t-40.5 97.5z" />
<glyph unicode="&#x2c6;" horiz-adv-x="870" d="M53 1456l297 313h152l297 -313h-281l-90 111q-53 -68 -84 -111h-291z" />
<glyph unicode="&#x2dc;" horiz-adv-x="907" d="M94 1493q17 297 193 297q27 0 56.5 -9.5t49 -19.5t53.5 -30q77 -45 123 -52q7 11 11 41v2v-2v2q0 4 1 23t1 22h213q-6 -148 -56 -223.5t-139 -75.5q-69 0 -176 68q-71 44 -105 49q-6 -4 -16 -92h-209z" />
<glyph unicode="&#x2000;" horiz-adv-x="911" />
<glyph unicode="&#x2001;" horiz-adv-x="1823" />
<glyph unicode="&#x2002;" horiz-adv-x="911" />
<glyph unicode="&#x2003;" horiz-adv-x="1823" />
<glyph unicode="&#x2004;" horiz-adv-x="607" />
<glyph unicode="&#x2005;" horiz-adv-x="455" />
<glyph unicode="&#x2006;" horiz-adv-x="303" />
<glyph unicode="&#x2007;" horiz-adv-x="303" />
<glyph unicode="&#x2008;" horiz-adv-x="227" />
<glyph unicode="&#x2009;" horiz-adv-x="364" />
<glyph unicode="&#x200a;" horiz-adv-x="101" />
<glyph unicode="&#x2010;" horiz-adv-x="1568" d="M299 573v287h936v-287h-936z" />
<glyph unicode="&#x2011;" horiz-adv-x="1568" d="M299 573v287h936v-287h-936z" />
<glyph unicode="&#x2012;" horiz-adv-x="1568" d="M299 573v287h936v-287h-936z" />
<glyph unicode="&#x2013;" horiz-adv-x="1468" d="M102 573v287h1233v-287h-1233z" />
<glyph unicode="&#x2014;" horiz-adv-x="2236" d="M111 573v287h1966v-287h-1966z" />
<glyph unicode="&#x2022;" horiz-adv-x="897" d="M96 717q0 142 100.5 242t241.5 100q143 0 243.5 -100t100.5 -242t-100.5 -242t-243.5 -100q-141 0 -241.5 100t-100.5 242z" />
<glyph unicode="&#x2026;" horiz-adv-x="1746" d="M100 154q0 69 49.5 118.5t118.5 49.5q70 0 119 -49.5t49 -118.5t-49 -118.5t-119 -49.5q-69 0 -118.5 49.5t-49.5 118.5zM496 154q0 69 48.5 118.5t117.5 49.5q70 0 118.5 -49.5t48.5 -118.5t-48.5 -118.5t-118.5 -49.5q-69 0 -117.5 49.5t-48.5 118.5zM883 154 q0 69 48.5 118.5t117.5 49.5q70 0 120 -49.5t50 -118.5t-50 -118.5t-120 -49.5q-69 0 -117.5 49.5t-48.5 118.5z" />
<glyph unicode="&#x202f;" horiz-adv-x="364" />
<glyph unicode="&#x205f;" horiz-adv-x="455" />
<glyph unicode="&#x20ac;" horiz-adv-x="1634" d="M115 434v240h127v41v45h-127v239h182q83 206 267 327.5t407 121.5q143 0 282.5 -61t251.5 -173l-200 -200q-70 72 -157 110.5t-177 38.5q-100 0 -190 -44.5t-154 -119.5h497v-239h-596q-2 -16 -2 -45t2 -41h596v-240h-497q62 -74 153 -119t191 -45q183 0 356 168 l199 -198q-251 -254 -555 -254q-233 0 -411.5 126.5t-262.5 321.5h-182z" />
<glyph unicode="&#x2122;" horiz-adv-x="1746" d="M133 1249v185h524v-185h-168v-493h-186v493h-170zM676 756v684h112l263 -260l262 260h110v-684h-186v352l-186 -188l-191 188v-352h-184z" />
<glyph unicode="&#x25fc;" horiz-adv-x="1433" d="M0 0v1434h1434v-1434h-1434z" />
</font>
</defs>
</svg>
